<svg width="355" height="302" viewBox="0 0 355 302" fill="none" xmlns="http://www.w3.org/2000/svg">
<g filter="url(#filter0_d)">
<circle cx="222" cy="129" r="115" fill="#87EF92"/>
<path d="M255 238C259.064 237.207 266.34 236.528 269.5 234C271.592 232.327 277.339 230.564 277.944 228.444C279.563 222.779 290.687 221.05 294.778 217.778C300.156 213.475 305.819 208.292 310.556 203.556C313.016 201.096 314.742 198.207 317.5 196C320.042 193.966 319.921 188.063 322.5 186C324.063 184.75 326.758 178.934 327 177C327.515 172.882 331.276 167.393 332.778 163.222C335.305 156.201 339 148.278 339 140.5C339 136 339 131.5 339 127C339 124.667 339 122.333 339 120C339 117.756 337.142 116.417 337 114C336.963 113.367 334.43 109.491 334 109.222C332.269 108.141 333 104.906 333 103C333 99.6844 333.833 92.7915 331.778 90.2222C329.772 87.7154 327.694 80.8712 326.944 77.5C326.575 75.8382 324.487 74.4562 323.944 72.5556C323.432 70.7608 322.011 68.3253 321 66.5556C319.107 63.2434 317.021 60.5769 314.222 57.7778C311.187 54.7424 309.791 50.5706 306.778 47.2222C302.281 42.2255 294.274 40.8429 290 35.5C287.984 32.9799 282.87 31.8375 281 29.5C280.521 28.9008 272.418 25 271.5 25C263.69 25 258.106 17 250 17C241.714 17 233.83 13 225.5 13C221.202 13 217.535 12 213 12C209.187 12 203.117 12.9063 200.222 15.2222C197.411 17.4711 192.892 16.2862 189.778 18.7778C186.866 21.1073 182.653 20.4773 179.778 22.7778C177.104 24.9168 170.606 22.2427 168 25.5C165.923 28.0965 161.199 28.7509 159 31.5C157.633 33.2091 153.769 36.1846 151.778 37.7778C148.692 40.2461 143.945 39.8189 141.222 43.2222C138.423 46.7212 130 54.2237 130 59.5C130 62.7872 124.96 65.3905 124.056 68.5556C123.094 71.9211 120.957 74.9017 119.944 78.4444C119.944 78.4459 117.539 81.9051 117.222 82.2222C115.626 83.8182 116.506 85.6169 115.222 87.2222C114.064 88.6695 114.353 90.8091 113.222 92.2222C112.702 92.8728 110.033 96.4465 110 97C109.53 104.997 106 112.063 106 120.5C106 128.671 105 138.253 105 147C105 151.878 108.709 154.051 109 159C109.107 160.822 111.916 168.326 113.222 169.778C114.804 171.535 116.272 177.202 116.944 179.556C117.763 182.421 123.237 185.579 124.056 188.444C124.667 190.583 129.487 194.043 131.222 195.778C133.926 198.481 134.689 201.611 136.778 204.222C137.733 205.416 137.104 207.883 138.5 209C139.693 209.955 141.045 211.307 142 212.5C144.237 215.297 146.953 216.941 149 219.5C153.67 225.337 163.065 226.354 169.444 230C172.852 231.947 174.716 235.748 179 236C182.846 236.226 187.066 239 191 239C199.299 239 205.69 243 214.5 243C223.667 243 232.833 243 242 243C246.083 243 250.528 242.378 253.778 239.778C255.629 238.297 257.9 239.711 260 238.778C261.811 237.973 263.328 236.836 265 236" stroke="#87EF92" stroke-width="10" stroke-linecap="round"/>
<path d="M336 115C335.245 111.13 333 107.741 333 104C333 101.667 333 99.3333 333 97" stroke="#87EF92" stroke-width="10" stroke-linecap="round"/>
</g>
<g filter="url(#filter1_d)">
<path d="M105.849 155.742C105.849 155.742 105.011 141.163 114.115 138.153C123.219 135.144 129.847 142.857 129.847 142.857L202.578 253.303C202.578 253.303 204.826 263.922 198.103 270.902C191.379 277.883 172.676 272.122 172.676 272.122M105.849 155.742C105.849 155.742 99.3167 156.543 96.3266 163.066C93.3366 169.589 97.8697 175.665 97.8697 175.665C97.8697 175.665 91.0607 181.558 90.3183 187.483C89.4874 194.114 96.4611 202.834 96.4611 202.834M105.849 155.742L116.63 158.685M96.4611 202.834C96.4611 202.834 92.8597 216.656 97.0521 223.128C102.169 231.026 111.375 231.793 111.375 231.793M96.4611 202.834C96.4611 202.834 101.17 199.889 104.575 199.472C107.979 199.055 113.26 200.777 113.26 200.777M111.375 231.793C111.375 231.793 109.575 243.789 113.547 249.525C116.812 254.241 125.889 257.486 125.889 257.486M111.375 231.793L122.06 226.222M125.889 257.486C125.889 257.486 129.711 265.505 134.784 268.238C140.279 271.198 149.011 268.389 149.011 268.389C149.011 268.389 154.653 274.186 159.372 275.646C166.264 277.777 172.676 272.122 172.676 272.122M125.889 257.486L127.546 247.811M172.676 272.122C172.676 272.122 174.78 268.04 175.142 265.189C175.559 261.911 174.114 256.79 174.114 256.79" stroke="#3B294A" stroke-width="10" stroke-linecap="round" stroke-linejoin="round"/>
<path d="M134.699 197.852C133.473 194.993 135.579 189.842 141.266 188.106" stroke="#3B294A" stroke-width="10" stroke-linecap="round" stroke-linejoin="round"/>
<path d="M161.775 227.139C161.775 227.139 158.483 229.655 153.203 226.144C148.005 222.688 149.024 216.171 149.024 216.171" stroke="#3B294A" stroke-width="10" stroke-linecap="round" stroke-linejoin="round"/>
<path d="M247.249 229.511C247.249 229.511 248.088 244.09 238.984 247.1C229.88 250.109 223.252 242.396 223.252 242.396L150.521 131.95C150.521 131.95 148.273 121.331 154.996 114.351C161.719 107.37 180.423 113.131 180.423 113.131M247.249 229.511C247.249 229.511 253.782 228.71 256.772 222.187C259.762 215.664 255.229 209.588 255.229 209.588C255.229 209.588 262.038 203.695 262.781 197.77C263.612 191.139 256.638 182.419 256.638 182.419M247.249 229.511L236.469 226.568M256.638 182.419C256.638 182.419 260.239 168.597 256.047 162.125C250.93 154.227 241.724 153.46 241.724 153.46M256.638 182.419C256.638 182.419 251.929 185.364 248.524 185.781C245.12 186.198 239.839 184.476 239.839 184.476M241.724 153.46C241.724 153.46 243.523 141.464 239.552 135.728C236.287 131.012 227.21 127.767 227.21 127.767M241.724 153.46L231.039 159.031M227.21 127.767C227.21 127.767 223.388 119.748 218.315 117.016C212.82 114.055 204.088 116.864 204.088 116.864C204.088 116.864 198.446 111.067 193.727 109.607C186.835 107.476 180.423 113.131 180.423 113.131M227.21 127.767L225.553 137.442M180.423 113.131C180.423 113.131 178.319 117.213 177.957 120.064C177.54 123.342 178.985 128.463 178.985 128.463" stroke="#3B294A" stroke-width="10" stroke-linecap="round" stroke-linejoin="round"/>
<path d="M218.4 187.401C219.626 190.26 217.52 195.411 211.833 197.147" stroke="#3B294A" stroke-width="10" stroke-linecap="round" stroke-linejoin="round"/>
<path d="M191.324 158.114C191.324 158.114 194.616 155.598 199.896 159.109C205.094 162.566 204.075 169.082 204.075 169.082" stroke="#3B294A" stroke-width="10" stroke-linecap="round" stroke-linejoin="round"/>
</g>
<path d="M64.2558 166.426L55.5423 164.98" stroke="#3B294A" stroke-width="10" stroke-linecap="round" stroke-linejoin="round"/>
<path d="M90.1801 116.225L83.5363 110.404" stroke="#3B294A" stroke-width="10" stroke-linecap="round" stroke-linejoin="round"/>
<path d="M138.054 84.9332L135.308 76.5381" stroke="#3B294A" stroke-width="10" stroke-linecap="round" stroke-linejoin="round"/>
<path d="M194.24 81.2284L196.43 72.6715" stroke="#3B294A" stroke-width="10" stroke-linecap="round" stroke-linejoin="round"/>
<path d="M245.061 105.729L250.719 98.9465" stroke="#3B294A" stroke-width="10" stroke-linecap="round" stroke-linejoin="round"/>
<path d="M40.5837 162.65L31.8702 161.205" stroke="#3B294A" stroke-width="10" stroke-linecap="round" stroke-linejoin="round"/>
<path d="M72.0507 100.542L65.4068 94.7218" stroke="#3B294A" stroke-width="10" stroke-linecap="round" stroke-linejoin="round"/>
<path d="M130.459 62.1967L127.713 53.8017" stroke="#3B294A" stroke-width="10" stroke-linecap="round" stroke-linejoin="round"/>
<path d="M200.037 57.9687L202.227 49.4118" stroke="#3B294A" stroke-width="10" stroke-linecap="round" stroke-linejoin="round"/>
<path d="M260.301 87.226L265.96 80.4435" stroke="#3B294A" stroke-width="10" stroke-linecap="round" stroke-linejoin="round"/>
<path d="M85.1547 248.062L77.0817 253.415" stroke="#3B294A" stroke-width="10" stroke-linecap="round" stroke-linejoin="round"/>
<path d="M63.6343 193.909L54.8203 194.483" stroke="#3B294A" stroke-width="10" stroke-linecap="round" stroke-linejoin="round"/>
<path d="M74.8776 140.587L67.0293 136.535" stroke="#3B294A" stroke-width="10" stroke-linecap="round" stroke-linejoin="round"/>
<path d="M110.741 96.4319L105.812 89.1022" stroke="#3B294A" stroke-width="10" stroke-linecap="round" stroke-linejoin="round"/>
<path d="M166.481 80.6146L165.864 71.8036" stroke="#3B294A" stroke-width="10" stroke-linecap="round" stroke-linejoin="round"/>
<path d="M218.5 92.1715L222.739 84.4226" stroke="#3B294A" stroke-width="10" stroke-linecap="round" stroke-linejoin="round"/>
<path d="M263.7 127.474L271.056 122.583" stroke="#3B294A" stroke-width="10" stroke-linecap="round" stroke-linejoin="round"/>
<path d="M64.9722 261.444L56.7675 265.722" stroke="#3B294A" stroke-width="10" stroke-linecap="round" stroke-linejoin="round"/>
<path d="M39.7241 195.618L30.9102 196.193" stroke="#3B294A" stroke-width="10" stroke-linecap="round" stroke-linejoin="round"/>
<path d="M53.5095 129.724L45.6612 125.671" stroke="#3B294A" stroke-width="10" stroke-linecap="round" stroke-linejoin="round"/>
<path d="M97.2405 76.6238L92.3119 69.2941" stroke="#3B294A" stroke-width="10" stroke-linecap="round" stroke-linejoin="round"/>
<path d="M164.657 56.7129L164.04 47.9018" stroke="#3B294A" stroke-width="10" stroke-linecap="round" stroke-linejoin="round"/>
<path d="M229.873 71.0698L234.112 63.3209" stroke="#3B294A" stroke-width="10" stroke-linecap="round" stroke-linejoin="round"/>
<path d="M283.579 114.077L290.934 109.187" stroke="#3B294A" stroke-width="10" stroke-linecap="round" stroke-linejoin="round"/>
<path d="M44.6579 273.752L36.5849 279.105" stroke="#3B294A" stroke-width="10" stroke-linecap="round" stroke-linejoin="round"/>
<path d="M15.8139 197.328L7 197.903" stroke="#3B294A" stroke-width="10" stroke-linecap="round" stroke-linejoin="round"/>
<path d="M32.1413 118.86L24.2931 114.807" stroke="#3B294A" stroke-width="10" stroke-linecap="round" stroke-linejoin="round"/>
<path d="M83.7402 56.8156L78.8116 49.4859" stroke="#3B294A" stroke-width="10" stroke-linecap="round" stroke-linejoin="round"/>
<path d="M162.833 32.8111L162.216 24" stroke="#3B294A" stroke-width="10" stroke-linecap="round" stroke-linejoin="round"/>
<path d="M241.246 49.9681L245.485 42.2192" stroke="#3B294A" stroke-width="10" stroke-linecap="round" stroke-linejoin="round"/>
<path d="M303.457 100.68L310.812 95.7897" stroke="#3B294A" stroke-width="10" stroke-linecap="round" stroke-linejoin="round"/>
<path d="M66.7952 223.991L58.497 227.017" stroke="#3B294A" stroke-width="10" stroke-linecap="round" stroke-linejoin="round"/>
<path d="M44.3262 232.344L36.028 235.369" stroke="#3B294A" stroke-width="10" stroke-linecap="round" stroke-linejoin="round"/>
<defs>
<filter id="filter0_d" x="95" y="0" width="260" height="257" filterUnits="userSpaceOnUse" color-interpolation-filters="sRGB">
<feFlood flood-opacity="0" result="BackgroundImageFix"/>
<feColorMatrix in="SourceAlpha" type="matrix" values="0 0 0 0 0 0 0 0 0 0 0 0 0 0 0 0 0 0 127 0" result="hardAlpha"/>
<feOffset dx="3" dy="1"/>
<feGaussianBlur stdDeviation="4"/>
<feComposite in2="hardAlpha" operator="out"/>
<feColorMatrix type="matrix" values="0 0 0 0 0 0 0 0 0 0 0 0 0 0 0 0 0 0 0.32 0"/>
<feBlend mode="normal" in2="BackgroundImageFix" result="effect1_dropShadow"/>
<feBlend mode="normal" in="SourceGraphic" in2="effect1_dropShadow" result="shape"/>
</filter>
<filter id="filter1_d" x="76.8303" y="87.6876" width="213.438" height="213.878" filterUnits="userSpaceOnUse" color-interpolation-filters="sRGB">
<feFlood flood-opacity="0" result="BackgroundImageFix"/>
<feColorMatrix in="SourceAlpha" type="matrix" values="0 0 0 0 0 0 0 0 0 0 0 0 0 0 0 0 0 0 127 0" result="hardAlpha"/>
<feOffset dx="7" dy="2"/>
<feGaussianBlur stdDeviation="4.5"/>
<feComposite in2="hardAlpha" operator="out"/>
<feColorMatrix type="matrix" values="0 0 0 0 0 0 0 0 0 0 0 0 0 0 0 0 0 0 0.43 0"/>
<feBlend mode="normal" in2="BackgroundImageFix" result="effect1_dropShadow"/>
<feBlend mode="normal" in="SourceGraphic" in2="effect1_dropShadow" result="shape"/>
</filter>
</defs>
</svg>
