<svg width="311" height="296" viewBox="0 0 311 296" fill="none" xmlns="http://www.w3.org/2000/svg">
<g filter="url(#filter0_d)">
<circle cx="178" cy="129" r="115" fill="#47EAAF"/>
<path d="M211 238C215.064 237.207 222.34 236.528 225.5 234C227.592 232.327 233.339 230.564 233.944 228.444C235.563 222.779 246.687 221.05 250.778 217.778C256.156 213.475 261.819 208.292 266.556 203.556C269.016 201.096 270.742 198.207 273.5 196C276.042 193.966 275.921 188.063 278.5 186C280.063 184.75 282.758 178.934 283 177C283.515 172.882 287.276 167.393 288.778 163.222C291.305 156.201 295 148.278 295 140.5C295 136 295 131.5 295 127C295 124.667 295 122.333 295 120C295 117.756 293.142 116.417 293 114C292.963 113.367 290.43 109.491 290 109.222C288.269 108.141 289 104.906 289 103C289 99.6844 289.833 92.7915 287.778 90.2222C285.772 87.7154 283.694 80.8712 282.944 77.5C282.575 75.8382 280.487 74.4562 279.944 72.5556C279.432 70.7608 278.011 68.3253 277 66.5556C275.107 63.2434 273.021 60.5769 270.222 57.7778C267.187 54.7424 265.791 50.5706 262.778 47.2222C258.281 42.2255 250.274 40.8429 246 35.5C243.984 32.9799 238.87 31.8375 237 29.5C236.521 28.9008 228.418 25 227.5 25C219.69 25 214.106 17 206 17C197.714 17 189.83 13 181.5 13C177.202 13 173.535 12 169 12C165.187 12 159.117 12.9063 156.222 15.2222C153.411 17.4711 148.892 16.2862 145.778 18.7778C142.866 21.1073 138.653 20.4773 135.778 22.7778C133.104 24.9168 126.606 22.2427 124 25.5C121.923 28.0965 117.199 28.7509 115 31.5C113.633 33.2091 109.769 36.1846 107.778 37.7778C104.692 40.2461 99.9448 39.8189 97.2222 43.2222C94.423 46.7212 86 54.2237 86 59.5C86 62.7872 80.9598 65.3905 80.0556 68.5556C79.094 71.9211 76.9567 74.9017 75.9444 78.4444C75.944 78.4459 73.5394 81.9051 73.2222 82.2222C71.6263 83.8182 72.5065 85.6169 71.2222 87.2222C70.0644 88.6695 70.3527 90.8091 69.2222 92.2222C68.7018 92.8728 66.0326 96.4465 66 97C65.5296 104.997 62 112.063 62 120.5C62 128.671 61 138.253 61 147C61 151.878 64.7089 154.051 65 159C65.1072 160.822 67.916 168.326 69.2222 169.778C70.8036 171.535 72.2721 177.202 72.9444 179.556C73.763 182.421 79.237 185.579 80.0556 188.444C80.6665 190.583 85.4875 194.043 87.2222 195.778C89.9259 198.481 90.6891 201.611 92.7778 204.222C93.7327 205.416 93.1039 207.883 94.5 209C95.6932 209.955 97.0454 211.307 98 212.5C100.237 215.297 102.953 216.941 105 219.5C109.67 225.337 119.065 226.354 125.444 230C128.852 231.947 130.716 235.748 135 236C138.846 236.226 143.066 239 147 239C155.299 239 161.69 243 170.5 243C179.667 243 188.833 243 198 243C202.083 243 206.528 242.378 209.778 239.778C211.629 238.297 213.9 239.711 216 238.778C217.811 237.973 219.328 236.836 221 236" stroke="#47EAAF" stroke-width="10" stroke-linecap="round"/>
<path d="M292 115C291.245 111.13 289 107.741 289 104C289 101.667 289 99.3333 289 97" stroke="#47EAAF" stroke-width="10" stroke-linecap="round"/>
</g>
<g filter="url(#filter1_d)">
<rect x="6" y="73" width="188" height="211" rx="6" fill="#3B294A"/>
<rect x="3" y="70" width="194" height="217" rx="9" stroke="white" stroke-width="6"/>
</g>
<rect x="9" y="76" width="182" height="205" rx="3" fill="#3B294A" stroke="black" stroke-width="6"/>
<rect x="28" y="102" width="28" height="5" rx="2.5" fill="#00CEFB"/>
<rect x="28" y="210" width="28" height="5" rx="2.5" fill="#00CEFB"/>
<rect x="28" y="148" width="28" height="5" rx="2.5" fill="#00CEFB"/>
<rect x="28" y="256" width="28" height="5" rx="2.5" fill="#00CEFB"/>
<rect x="28" y="87" width="17" height="5" rx="2.5" fill="#00CEFB"/>
<rect x="49" y="87" width="36" height="5" rx="2.5" fill="#F9C200"/>
<rect x="45" y="166" width="36" height="5" rx="2.5" fill="#F9C200"/>
<rect x="28" y="182" width="36" height="5" rx="2.5" fill="#FF8484"/>
<rect x="35" y="158" width="36" height="5" rx="2.5" fill="white"/>
<rect x="35" y="266" width="36" height="5" rx="2.5" fill="white"/>
<rect x="35" y="112" width="61" height="5" rx="2.5" fill="white"/>
<rect x="35" y="220" width="61" height="5" rx="2.5" fill="white"/>
<rect x="35" y="120" width="25" height="5" rx="2.5" fill="white"/>
<rect x="35" y="228" width="25" height="5" rx="2.5" fill="white"/>
<rect x="35" y="128" width="45" height="5" rx="2.5" fill="white"/>
<rect x="35" y="236" width="45" height="5" rx="2.5" fill="white"/>
<rect x="35" y="192" width="45" height="5" rx="2.5" fill="white"/>
<rect x="35" y="136" width="70" height="5" rx="2.5" fill="white"/>
<rect x="35" y="244" width="70" height="5" rx="2.5" fill="white"/>
<rect x="154" y="88" width="10" height="3" rx="1.5" fill="#00CEFB"/>
<rect x="154" y="121" width="10" height="2" rx="1" fill="#00CEFB"/>
<rect x="154" y="103" width="10" height="1" rx="0.5" fill="#00CEFB"/>
<rect x="154" y="136" width="10" height="1" rx="0.5" fill="#00CEFB"/>
<rect x="154" y="84" width="8" height="1" rx="0.5" fill="#00CEFB"/>
<rect x="162" y="84" width="15" height="1" rx="0.5" fill="#F9C200"/>
<rect x="162" y="108" width="13" height="1" rx="0.5" fill="#F9C200"/>
<rect x="154" y="113" width="15" height="2" rx="1" fill="#FF8484"/>
<rect x="157" y="105" width="15" height="2" rx="1" fill="white"/>
<rect x="157" y="139" width="15" height="1" rx="0.5" fill="white"/>
<rect x="157" y="92" width="25" height="1" rx="0.5" fill="white"/>
<rect x="157" y="124" width="25" height="1" rx="0.5" fill="white"/>
<rect x="157" y="95" width="10" height="1" rx="0.5" fill="white"/>
<rect x="157" y="127" width="10" height="1" rx="0.5" fill="white"/>
<rect x="157" y="96" width="18" height="3" rx="1.5" fill="white"/>
<rect x="157" y="129" width="18" height="2" rx="1" fill="white"/>
<rect x="157" y="116" width="18" height="1" rx="0.5" fill="white"/>
<rect x="157" y="99" width="28" height="1" rx="0.5" fill="white"/>
<rect x="157" y="132" width="28" height="1" rx="0.5" fill="white"/>
<rect x="154" y="144" width="10" height="3" rx="1.5" fill="#00CEFB"/>
<rect x="154" y="177" width="10" height="2" rx="1" fill="#00CEFB"/>
<rect x="154" y="159" width="10" height="1" rx="0.5" fill="#00CEFB"/>
<rect x="154" y="192" width="10" height="1" rx="0.5" fill="#00CEFB"/>
<rect x="154" y="140" width="8" height="1" rx="0.5" fill="#00CEFB"/>
<rect x="162" y="140" width="15" height="1" rx="0.5" fill="#F9C200"/>
<rect x="162" y="164" width="13" height="1" rx="0.5" fill="#F9C200"/>
<rect x="154" y="169" width="15" height="2" rx="1" fill="#FF8484"/>
<rect x="157" y="161" width="15" height="2" rx="1" fill="white"/>
<rect x="157" y="195" width="15" height="1" rx="0.5" fill="white"/>
<rect x="157" y="148" width="25" height="1" rx="0.5" fill="white"/>
<rect x="157" y="180" width="25" height="1" rx="0.5" fill="white"/>
<rect x="157" y="151" width="10" height="1" rx="0.5" fill="white"/>
<rect x="157" y="183" width="10" height="1" rx="0.5" fill="white"/>
<rect x="157" y="152" width="18" height="3" rx="1.5" fill="white"/>
<rect x="157" y="185" width="18" height="2" rx="1" fill="white"/>
<rect x="157" y="172" width="18" height="1" rx="0.5" fill="white"/>
<rect x="157" y="155" width="28" height="1" rx="0.5" fill="white"/>
<rect x="157" y="188" width="28" height="1" rx="0.5" fill="white"/>
<rect x="147.5" y="75.5" width="44" height="206" rx="2.5" fill="#3B294A" fill-opacity="0.56" stroke="black" stroke-width="5"/>
<defs>
<filter id="filter0_d" x="51" y="0" width="260" height="257" filterUnits="userSpaceOnUse" color-interpolation-filters="sRGB">
<feFlood flood-opacity="0" result="BackgroundImageFix"/>
<feColorMatrix in="SourceAlpha" type="matrix" values="0 0 0 0 0 0 0 0 0 0 0 0 0 0 0 0 0 0 127 0" result="hardAlpha"/>
<feOffset dx="3" dy="1"/>
<feGaussianBlur stdDeviation="4"/>
<feComposite in2="hardAlpha" operator="out"/>
<feColorMatrix type="matrix" values="0 0 0 0 0 0 0 0 0 0 0 0 0 0 0 0 0 0 0.32 0"/>
<feBlend mode="normal" in2="BackgroundImageFix" result="effect1_dropShadow"/>
<feBlend mode="normal" in="SourceGraphic" in2="effect1_dropShadow" result="shape"/>
</filter>
<filter id="filter1_d" x="0" y="65" width="209" height="231" filterUnits="userSpaceOnUse" color-interpolation-filters="sRGB">
<feFlood flood-opacity="0" result="BackgroundImageFix"/>
<feColorMatrix in="SourceAlpha" type="matrix" values="0 0 0 0 0 0 0 0 0 0 0 0 0 0 0 0 0 0 127 0" result="hardAlpha"/>
<feOffset dx="5" dy="2"/>
<feGaussianBlur stdDeviation="2"/>
<feComposite in2="hardAlpha" operator="out"/>
<feColorMatrix type="matrix" values="0 0 0 0 0 0 0 0 0 0 0 0 0 0 0 0 0 0 0.39 0"/>
<feBlend mode="normal" in2="BackgroundImageFix" result="effect1_dropShadow"/>
<feBlend mode="normal" in="SourceGraphic" in2="effect1_dropShadow" result="shape"/>
</filter>
</defs>
</svg>
