<svg width="305" height="290" viewBox="0 0 305 290" fill="none" xmlns="http://www.w3.org/2000/svg">
<g filter="url(#filter0_d)">
<circle cx="172" cy="129" r="115" fill="#87EF92"/>
<path d="M205 238C209.064 237.207 216.34 236.528 219.5 234C221.592 232.327 227.339 230.564 227.944 228.444C229.563 222.779 240.687 221.05 244.778 217.778C250.156 213.475 255.819 208.292 260.556 203.556C263.016 201.096 264.742 198.207 267.5 196C270.042 193.966 269.921 188.063 272.5 186C274.063 184.75 276.758 178.934 277 177C277.515 172.882 281.276 167.393 282.778 163.222C285.305 156.201 289 148.278 289 140.5C289 136 289 131.5 289 127C289 124.667 289 122.333 289 120C289 117.756 287.142 116.417 287 114C286.963 113.367 284.43 109.491 284 109.222C282.269 108.141 283 104.906 283 103C283 99.6844 283.833 92.7915 281.778 90.2222C279.772 87.7154 277.694 80.8712 276.944 77.5C276.575 75.8382 274.487 74.4562 273.944 72.5556C273.432 70.7608 272.011 68.3253 271 66.5556C269.107 63.2434 267.021 60.5769 264.222 57.7778C261.187 54.7424 259.791 50.5706 256.778 47.2222C252.281 42.2255 244.274 40.8429 240 35.5C237.984 32.9799 232.87 31.8375 231 29.5C230.521 28.9008 222.418 25 221.5 25C213.69 25 208.106 17 200 17C191.714 17 183.83 13 175.5 13C171.202 13 167.535 12 163 12C159.187 12 153.117 12.9063 150.222 15.2222C147.411 17.4711 142.892 16.2862 139.778 18.7778C136.866 21.1073 132.653 20.4773 129.778 22.7778C127.104 24.9168 120.606 22.2427 118 25.5C115.923 28.0965 111.199 28.7509 109 31.5C107.633 33.2091 103.769 36.1846 101.778 37.7778C98.6923 40.2461 93.9448 39.8189 91.2222 43.2222C88.423 46.7212 80 54.2237 80 59.5C80 62.7872 74.9598 65.3905 74.0556 68.5556C73.094 71.9211 70.9567 74.9017 69.9444 78.4444C69.944 78.4459 67.5394 81.9051 67.2222 82.2222C65.6263 83.8182 66.5065 85.6169 65.2222 87.2222C64.0644 88.6695 64.3527 90.8091 63.2222 92.2222C62.7018 92.8728 60.0326 96.4465 60 97C59.5296 104.997 56 112.063 56 120.5C56 128.671 55 138.253 55 147C55 151.878 58.7089 154.051 59 159C59.1072 160.822 61.916 168.326 63.2222 169.778C64.8036 171.535 66.2721 177.202 66.9444 179.556C67.763 182.421 73.237 185.579 74.0556 188.444C74.6665 190.583 79.4875 194.043 81.2222 195.778C83.9259 198.481 84.6891 201.611 86.7778 204.222C87.7327 205.416 87.1039 207.883 88.5 209C89.6932 209.955 91.0454 211.307 92 212.5C94.2373 215.297 96.9527 216.941 99 219.5C103.67 225.337 113.065 226.354 119.444 230C122.852 231.947 124.716 235.748 129 236C132.846 236.226 137.066 239 141 239C149.299 239 155.69 243 164.5 243C173.667 243 182.833 243 192 243C196.083 243 200.528 242.378 203.778 239.778C205.629 238.297 207.9 239.711 210 238.778C211.811 237.973 213.328 236.836 215 236" stroke="#87EF92" stroke-width="10" stroke-linecap="round"/>
<path d="M286 115C285.245 111.13 283 107.741 283 104C283 101.667 283 99.3333 283 97" stroke="#87EF92" stroke-width="10" stroke-linecap="round"/>
</g>
<g filter="url(#filter1_d)">
<rect y="73" width="188" height="211" rx="6" fill="#3B294A"/>
<rect x="3" y="76" width="182" height="205" rx="3" stroke="black" stroke-width="6"/>
</g>
<rect x="22" y="102" width="28" height="5" rx="2.5" fill="#00CEFB"/>
<rect x="22" y="210" width="28" height="5" rx="2.5" fill="#00CEFB"/>
<rect x="22" y="148" width="28" height="5" rx="2.5" fill="#00CEFB"/>
<rect x="22" y="256" width="28" height="5" rx="2.5" fill="#00CEFB"/>
<rect x="22" y="87" width="17" height="5" rx="2.5" fill="#00CEFB"/>
<rect x="43" y="87" width="36" height="5" rx="2.5" fill="#F9C200"/>
<rect x="39" y="166" width="36" height="5" rx="2.5" fill="#F9C200"/>
<rect x="22" y="182" width="36" height="5" rx="2.5" fill="#FF8484"/>
<rect x="29" y="158" width="36" height="5" rx="2.5" fill="white"/>
<rect x="29" y="266" width="36" height="5" rx="2.5" fill="white"/>
<rect x="29" y="112" width="61" height="5" rx="2.5" fill="white"/>
<rect x="29" y="220" width="61" height="5" rx="2.5" fill="white"/>
<rect x="29" y="120" width="25" height="5" rx="2.5" fill="white"/>
<rect x="29" y="228" width="25" height="5" rx="2.5" fill="white"/>
<rect x="29" y="128" width="45" height="5" rx="2.5" fill="white"/>
<rect x="29" y="236" width="45" height="5" rx="2.5" fill="white"/>
<rect x="29" y="192" width="45" height="5" rx="2.5" fill="white"/>
<rect x="29" y="136" width="70" height="5" rx="2.5" fill="white"/>
<rect x="29" y="244" width="70" height="5" rx="2.5" fill="white"/>
<rect x="148" y="88" width="10" height="3" rx="1.5" fill="#00CEFB"/>
<rect x="148" y="121" width="10" height="2" rx="1" fill="#00CEFB"/>
<rect x="148" y="103" width="10" height="1" rx="0.5" fill="#00CEFB"/>
<rect x="148" y="136" width="10" height="1" rx="0.5" fill="#00CEFB"/>
<rect x="148" y="84" width="8" height="1" rx="0.5" fill="#00CEFB"/>
<rect x="156" y="84" width="15" height="1" rx="0.5" fill="#F9C200"/>
<rect x="156" y="108" width="13" height="1" rx="0.5" fill="#F9C200"/>
<rect x="148" y="113" width="15" height="2" rx="1" fill="#FF8484"/>
<rect x="151" y="105" width="15" height="2" rx="1" fill="white"/>
<rect x="151" y="139" width="15" height="1" rx="0.5" fill="white"/>
<rect x="151" y="92" width="25" height="1" rx="0.5" fill="white"/>
<rect x="151" y="124" width="25" height="1" rx="0.5" fill="white"/>
<rect x="151" y="95" width="10" height="1" rx="0.5" fill="white"/>
<rect x="151" y="127" width="10" height="1" rx="0.5" fill="white"/>
<rect x="151" y="96" width="18" height="3" rx="1.5" fill="white"/>
<rect x="151" y="129" width="18" height="2" rx="1" fill="white"/>
<rect x="151" y="116" width="18" height="1" rx="0.5" fill="white"/>
<rect x="151" y="99" width="28" height="1" rx="0.5" fill="white"/>
<rect x="151" y="132" width="28" height="1" rx="0.5" fill="white"/>
<rect x="148" y="144" width="10" height="3" rx="1.5" fill="#00CEFB"/>
<rect x="148" y="177" width="10" height="2" rx="1" fill="#00CEFB"/>
<rect x="148" y="159" width="10" height="1" rx="0.5" fill="#00CEFB"/>
<rect x="148" y="192" width="10" height="1" rx="0.5" fill="#00CEFB"/>
<rect x="148" y="140" width="8" height="1" rx="0.5" fill="#00CEFB"/>
<rect x="156" y="140" width="15" height="1" rx="0.5" fill="#F9C200"/>
<rect x="156" y="164" width="13" height="1" rx="0.5" fill="#F9C200"/>
<rect x="148" y="169" width="15" height="2" rx="1" fill="#FF8484"/>
<rect x="151" y="161" width="15" height="2" rx="1" fill="white"/>
<rect x="151" y="195" width="15" height="1" rx="0.5" fill="white"/>
<rect x="151" y="148" width="25" height="1" rx="0.5" fill="white"/>
<rect x="151" y="180" width="25" height="1" rx="0.5" fill="white"/>
<rect x="151" y="151" width="10" height="1" rx="0.5" fill="white"/>
<rect x="151" y="183" width="10" height="1" rx="0.5" fill="white"/>
<rect x="151" y="152" width="18" height="3" rx="1.5" fill="white"/>
<rect x="151" y="185" width="18" height="2" rx="1" fill="white"/>
<rect x="151" y="172" width="18" height="1" rx="0.5" fill="white"/>
<rect x="151" y="155" width="28" height="1" rx="0.5" fill="white"/>
<rect x="151" y="188" width="28" height="1" rx="0.5" fill="white"/>
<rect x="141.5" y="75.5" width="44" height="206" rx="2.5" fill="#3B294A" fill-opacity="0.56" stroke="black" stroke-width="5"/>
<defs>
<filter id="filter0_d" x="45" y="0" width="260" height="257" filterUnits="userSpaceOnUse" color-interpolation-filters="sRGB">
<feFlood flood-opacity="0" result="BackgroundImageFix"/>
<feColorMatrix in="SourceAlpha" type="matrix" values="0 0 0 0 0 0 0 0 0 0 0 0 0 0 0 0 0 0 127 0" result="hardAlpha"/>
<feOffset dx="3" dy="1"/>
<feGaussianBlur stdDeviation="4"/>
<feComposite in2="hardAlpha" operator="out"/>
<feColorMatrix type="matrix" values="0 0 0 0 0 0 0 0 0 0 0 0 0 0 0 0 0 0 0.32 0"/>
<feBlend mode="normal" in2="BackgroundImageFix" result="effect1_dropShadow"/>
<feBlend mode="normal" in="SourceGraphic" in2="effect1_dropShadow" result="shape"/>
</filter>
<filter id="filter1_d" x="0" y="71" width="197" height="219" filterUnits="userSpaceOnUse" color-interpolation-filters="sRGB">
<feFlood flood-opacity="0" result="BackgroundImageFix"/>
<feColorMatrix in="SourceAlpha" type="matrix" values="0 0 0 0 0 0 0 0 0 0 0 0 0 0 0 0 0 0 127 0" result="hardAlpha"/>
<feOffset dx="5" dy="2"/>
<feGaussianBlur stdDeviation="2"/>
<feComposite in2="hardAlpha" operator="out"/>
<feColorMatrix type="matrix" values="0 0 0 0 0 0 0 0 0 0 0 0 0 0 0 0 0 0 0.39 0"/>
<feBlend mode="normal" in2="BackgroundImageFix" result="effect1_dropShadow"/>
<feBlend mode="normal" in="SourceGraphic" in2="effect1_dropShadow" result="shape"/>
</filter>
</defs>
</svg>
