<svg width="321" height="291" viewBox="0 0 321 291" fill="none" xmlns="http://www.w3.org/2000/svg">
<g filter="url(#filter0_d)">
<circle cx="188" cy="129" r="115" fill="#87EF92"/>
<path d="M221 238C225.064 237.207 232.34 236.528 235.5 234C237.592 232.327 243.339 230.564 243.944 228.444C245.563 222.779 256.687 221.05 260.778 217.778C266.156 213.475 271.819 208.292 276.556 203.556C279.016 201.096 280.742 198.207 283.5 196C286.042 193.966 285.921 188.063 288.5 186C290.063 184.75 292.758 178.934 293 177C293.515 172.882 297.276 167.393 298.778 163.222C301.305 156.201 305 148.278 305 140.5C305 136 305 131.5 305 127C305 124.667 305 122.333 305 120C305 117.756 303.142 116.417 303 114C302.963 113.367 300.43 109.491 300 109.222C298.269 108.141 299 104.906 299 103C299 99.6844 299.833 92.7915 297.778 90.2222C295.772 87.7154 293.694 80.8712 292.944 77.5C292.575 75.8382 290.487 74.4562 289.944 72.5556C289.432 70.7608 288.011 68.3253 287 66.5556C285.107 63.2434 283.021 60.5769 280.222 57.7778C277.187 54.7424 275.791 50.5706 272.778 47.2222C268.281 42.2255 260.274 40.8429 256 35.5C253.984 32.9799 248.87 31.8375 247 29.5C246.521 28.9008 238.418 25 237.5 25C229.69 25 224.106 17 216 17C207.714 17 199.83 13 191.5 13C187.202 13 183.535 12 179 12C175.187 12 169.117 12.9063 166.222 15.2222C163.411 17.4711 158.892 16.2862 155.778 18.7778C152.866 21.1073 148.653 20.4773 145.778 22.7778C143.104 24.9168 136.606 22.2427 134 25.5C131.923 28.0965 127.199 28.7509 125 31.5C123.633 33.2091 119.769 36.1846 117.778 37.7778C114.692 40.2461 109.945 39.8189 107.222 43.2222C104.423 46.7212 96 54.2237 96 59.5C96 62.7872 90.9598 65.3905 90.0556 68.5556C89.094 71.9211 86.9567 74.9017 85.9444 78.4444C85.944 78.4459 83.5394 81.9051 83.2222 82.2222C81.6263 83.8182 82.5065 85.6169 81.2222 87.2222C80.0644 88.6695 80.3527 90.8091 79.2222 92.2222C78.7018 92.8728 76.0326 96.4465 76 97C75.5296 104.997 72 112.063 72 120.5C72 128.671 71 138.253 71 147C71 151.878 74.7089 154.051 75 159C75.1072 160.822 77.916 168.326 79.2222 169.778C80.8036 171.535 82.2721 177.202 82.9444 179.556C83.763 182.421 89.237 185.579 90.0556 188.444C90.6665 190.583 95.4875 194.043 97.2222 195.778C99.9259 198.481 100.689 201.611 102.778 204.222C103.733 205.416 103.104 207.883 104.5 209C105.693 209.955 107.045 211.307 108 212.5C110.237 215.297 112.953 216.941 115 219.5C119.67 225.337 129.065 226.354 135.444 230C138.852 231.947 140.716 235.748 145 236C148.846 236.226 153.066 239 157 239C165.299 239 171.69 243 180.5 243C189.667 243 198.833 243 208 243C212.083 243 216.528 242.378 219.778 239.778C221.629 238.297 223.9 239.711 226 238.778C227.811 237.973 229.328 236.836 231 236" stroke="#87EF92" stroke-width="10" stroke-linecap="round"/>
<path d="M302 115C301.245 111.13 299 107.741 299 104C299 101.667 299 99.3333 299 97" stroke="#87EF92" stroke-width="10" stroke-linecap="round"/>
</g>
<path d="M6 286H13" stroke="#3B294A" stroke-width="8" stroke-linecap="round" stroke-linejoin="round"/>
<path d="M28 286H35" stroke="#3B294A" stroke-width="8" stroke-linecap="round" stroke-linejoin="round"/>
<path d="M50 286H57" stroke="#3B294A" stroke-width="8" stroke-linecap="round" stroke-linejoin="round"/>
<path d="M72 286H79" stroke="#3B294A" stroke-width="8" stroke-linecap="round" stroke-linejoin="round"/>
<path d="M94 286H101" stroke="#3B294A" stroke-width="8" stroke-linecap="round" stroke-linejoin="round"/>
<path d="M116 286H123" stroke="#3B294A" stroke-width="8" stroke-linecap="round" stroke-linejoin="round"/>
<path d="M138 286H145" stroke="#3B294A" stroke-width="8" stroke-linecap="round" stroke-linejoin="round"/>
<path d="M160 286H167" stroke="#3B294A" stroke-width="8" stroke-linecap="round" stroke-linejoin="round"/>
<path d="M182 286H189" stroke="#3B294A" stroke-width="8" stroke-linecap="round" stroke-linejoin="round"/>
<path d="M204 286H211" stroke="#3B294A" stroke-width="8" stroke-linecap="round" stroke-linejoin="round"/>
<g filter="url(#filter1_d)">
<path d="M38.5 203L8.5 271.5L78 240M38.5 203L141.5 99.5913M38.5 203H58.5M78 240L178.968 137.06M78 240L75.5 219.5M190.5 125.303L206 109.5C206 109.5 215.5 96 199 79.5C182.5 63 164.5 76.5 164.5 76.5L153.121 87.9239M190.5 125.303L153.121 87.9239M190.5 125.303L178.968 137.06M153.121 87.9239L141.5 99.5913M141.5 99.5913L151.409 109.5M178.968 137.06L167.211 125.303M167.211 125.303L153.121 139.393M167.211 125.303L151.409 109.5M151.409 109.5L106.5 155M95 167L85 176.5M58.5 203L53.5 223.5L75.5 219.5M58.5 203L72.5 189M75.5 219.5L141.5 155" stroke="#3B294A" stroke-width="10" stroke-linecap="round" stroke-linejoin="round"/>
<path d="M11.5956 267.498L21.8538 241.192L38.4739 258.849L11.5956 267.498Z" fill="#3B294A"/>
</g>
<defs>
<filter id="filter0_d" x="61" y="0" width="260" height="257" filterUnits="userSpaceOnUse" color-interpolation-filters="sRGB">
<feFlood flood-opacity="0" result="BackgroundImageFix"/>
<feColorMatrix in="SourceAlpha" type="matrix" values="0 0 0 0 0 0 0 0 0 0 0 0 0 0 0 0 0 0 127 0" result="hardAlpha"/>
<feOffset dx="3" dy="1"/>
<feGaussianBlur stdDeviation="4"/>
<feComposite in2="hardAlpha" operator="out"/>
<feColorMatrix type="matrix" values="0 0 0 0 0 0 0 0 0 0 0 0 0 0 0 0 0 0 0.32 0"/>
<feBlend mode="normal" in2="BackgroundImageFix" result="effect1_dropShadow"/>
<feBlend mode="normal" in="SourceGraphic" in2="effect1_dropShadow" result="shape"/>
</filter>
<filter id="filter1_d" x="0.285583" y="64.3016" width="226.436" height="226.199" filterUnits="userSpaceOnUse" color-interpolation-filters="sRGB">
<feFlood flood-opacity="0" result="BackgroundImageFix"/>
<feColorMatrix in="SourceAlpha" type="matrix" values="0 0 0 0 0 0 0 0 0 0 0 0 0 0 0 0 0 0 127 0" result="hardAlpha"/>
<feOffset dx="5" dy="6"/>
<feGaussianBlur stdDeviation="4"/>
<feComposite in2="hardAlpha" operator="out"/>
<feColorMatrix type="matrix" values="0 0 0 0 0 0 0 0 0 0 0 0 0 0 0 0 0 0 0.34 0"/>
<feBlend mode="normal" in2="BackgroundImageFix" result="effect1_dropShadow"/>
<feBlend mode="normal" in="SourceGraphic" in2="effect1_dropShadow" result="shape"/>
</filter>
</defs>
</svg>
