<svg width="337" height="292" viewBox="0 0 337 292" fill="none" xmlns="http://www.w3.org/2000/svg">
<g filter="url(#filter0_d)">
<circle cx="204" cy="129" r="115" fill="#47EAAF"/>
<path d="M237 238C241.064 237.207 248.34 236.528 251.5 234C253.592 232.327 259.339 230.564 259.944 228.444C261.563 222.779 272.687 221.05 276.778 217.778C282.156 213.475 287.819 208.292 292.556 203.556C295.016 201.096 296.742 198.207 299.5 196C302.042 193.966 301.921 188.063 304.5 186C306.063 184.75 308.758 178.934 309 177C309.515 172.882 313.276 167.393 314.778 163.222C317.305 156.201 321 148.278 321 140.5C321 136 321 131.5 321 127C321 124.667 321 122.333 321 120C321 117.756 319.142 116.417 319 114C318.963 113.367 316.43 109.491 316 109.222C314.269 108.141 315 104.906 315 103C315 99.6844 315.833 92.7915 313.778 90.2222C311.772 87.7154 309.694 80.8712 308.944 77.5C308.575 75.8382 306.487 74.4562 305.944 72.5556C305.432 70.7608 304.011 68.3253 303 66.5556C301.107 63.2434 299.021 60.5769 296.222 57.7778C293.187 54.7424 291.791 50.5706 288.778 47.2222C284.281 42.2255 276.274 40.8429 272 35.5C269.984 32.9799 264.87 31.8375 263 29.5C262.521 28.9008 254.418 25 253.5 25C245.69 25 240.106 17 232 17C223.714 17 215.83 13 207.5 13C203.202 13 199.535 12 195 12C191.187 12 185.117 12.9063 182.222 15.2222C179.411 17.4711 174.892 16.2862 171.778 18.7778C168.866 21.1073 164.653 20.4773 161.778 22.7778C159.104 24.9168 152.606 22.2427 150 25.5C147.923 28.0965 143.199 28.7509 141 31.5C139.633 33.2091 135.769 36.1846 133.778 37.7778C130.692 40.2461 125.945 39.8189 123.222 43.2222C120.423 46.7212 112 54.2237 112 59.5C112 62.7872 106.96 65.3905 106.056 68.5556C105.094 71.9211 102.957 74.9017 101.944 78.4444C101.944 78.4459 99.5394 81.9051 99.2222 82.2222C97.6263 83.8182 98.5065 85.6169 97.2222 87.2222C96.0644 88.6695 96.3527 90.8091 95.2222 92.2222C94.7018 92.8728 92.0326 96.4465 92 97C91.5296 104.997 88 112.063 88 120.5C88 128.671 87 138.253 87 147C87 151.878 90.7089 154.051 91 159C91.1072 160.822 93.916 168.326 95.2222 169.778C96.8036 171.535 98.2721 177.202 98.9444 179.556C99.763 182.421 105.237 185.579 106.056 188.444C106.667 190.583 111.487 194.043 113.222 195.778C115.926 198.481 116.689 201.611 118.778 204.222C119.733 205.416 119.104 207.883 120.5 209C121.693 209.955 123.045 211.307 124 212.5C126.237 215.297 128.953 216.941 131 219.5C135.67 225.337 145.065 226.354 151.444 230C154.852 231.947 156.716 235.748 161 236C164.846 236.226 169.066 239 173 239C181.299 239 187.69 243 196.5 243C205.667 243 214.833 243 224 243C228.083 243 232.528 242.378 235.778 239.778C237.629 238.297 239.9 239.711 242 238.778C243.811 237.973 245.328 236.836 247 236" stroke="#47EAAF" stroke-width="10" stroke-linecap="round"/>
<path d="M318 115C317.245 111.13 315 107.741 315 104C315 101.667 315 99.3333 315 97" stroke="#47EAAF" stroke-width="10" stroke-linecap="round"/>
</g>
<path d="M22 288H29" stroke="white" stroke-width="8" stroke-linecap="round" stroke-linejoin="round"/>
<path d="M44 288H51" stroke="white" stroke-width="8" stroke-linecap="round" stroke-linejoin="round"/>
<path d="M66 288H73" stroke="white" stroke-width="8" stroke-linecap="round" stroke-linejoin="round"/>
<path d="M88 288H95" stroke="white" stroke-width="8" stroke-linecap="round" stroke-linejoin="round"/>
<path d="M110 288H117" stroke="white" stroke-width="8" stroke-linecap="round" stroke-linejoin="round"/>
<path d="M132 288H139" stroke="white" stroke-width="8" stroke-linecap="round" stroke-linejoin="round"/>
<path d="M154 288H161" stroke="white" stroke-width="8" stroke-linecap="round" stroke-linejoin="round"/>
<path d="M176 288H183" stroke="white" stroke-width="8" stroke-linecap="round" stroke-linejoin="round"/>
<path d="M198 288H205" stroke="white" stroke-width="8" stroke-linecap="round" stroke-linejoin="round"/>
<path d="M220 288H227" stroke="white" stroke-width="8" stroke-linecap="round" stroke-linejoin="round"/>
<g filter="url(#filter1_d)">
<path d="M50.4914 203.196L18.8546 271.799L92.1465 240.252M50.4914 203.196L159.111 99.6335M50.4914 203.196H71.5826M92.1465 240.252L198.624 137.158M92.1465 240.252L89.5101 219.721M210.785 125.383L227.13 109.557C227.13 109.557 237.149 96.0368 219.748 79.5122C202.348 62.9876 183.366 76.5077 183.366 76.5077L171.366 87.9487M210.785 125.383L171.366 87.9487M210.785 125.383L198.624 137.158M171.366 87.9487L159.111 99.6335M159.111 99.6335L169.56 109.557M198.624 137.158L186.225 125.383M186.225 125.383L171.366 139.494M186.225 125.383L169.56 109.557M169.56 109.557L122.202 155.125M110.074 167.143L99.5285 176.657M71.5826 203.196L66.3098 223.727L89.5101 219.721M71.5826 203.196L86.3465 189.175M89.5101 219.721L159.111 155.125" stroke="white" stroke-width="10" stroke-linecap="round" stroke-linejoin="round"/>
<path d="M22.1191 267.79L32.937 241.445L50.4639 259.128L22.1191 267.79Z" fill="white"/>
</g>
<g filter="url(#filter2_d)">
<path d="M38.5 199.701L8.5 268.201L78 236.701M38.5 199.701L141.5 96.2922M38.5 199.701H58.5M78 236.701L178.968 133.761M78 236.701L75.5 216.201M190.5 122.004L206 106.201C206 106.201 215.5 92.7009 199 76.2009C182.5 59.7009 164.5 73.2009 164.5 73.2009L153.121 84.6249M190.5 122.004L153.121 84.6249M190.5 122.004L178.968 133.761M153.121 84.6249L141.5 96.2922M141.5 96.2922L151.409 106.201M178.968 133.761L167.211 122.004M167.211 122.004L153.121 136.094M167.211 122.004L151.409 106.201M151.409 106.201L106.5 151.701M95 163.701L85 173.201M58.5 199.701L53.5 220.201L75.5 216.201M58.5 199.701L72.5 185.701M75.5 216.201L141.5 151.701" stroke="white" stroke-width="10" stroke-linecap="round" stroke-linejoin="round"/>
<path d="M11.5956 264.199L21.8538 237.893L38.4739 255.55L11.5956 264.199Z" fill="white"/>
</g>
<path d="M16 280.701H23" stroke="#3B294A" stroke-width="8" stroke-linecap="round" stroke-linejoin="round"/>
<path d="M38 280.701H45" stroke="#3B294A" stroke-width="8" stroke-linecap="round" stroke-linejoin="round"/>
<path d="M60 280.701H67" stroke="#3B294A" stroke-width="8" stroke-linecap="round" stroke-linejoin="round"/>
<path d="M82 280.701H89" stroke="#3B294A" stroke-width="8" stroke-linecap="round" stroke-linejoin="round"/>
<path d="M104 280.701H111" stroke="#3B294A" stroke-width="8" stroke-linecap="round" stroke-linejoin="round"/>
<path d="M126 280.701H133" stroke="#3B294A" stroke-width="8" stroke-linecap="round" stroke-linejoin="round"/>
<path d="M148 280.701H155" stroke="#3B294A" stroke-width="8" stroke-linecap="round" stroke-linejoin="round"/>
<path d="M170 280.701H177" stroke="#3B294A" stroke-width="8" stroke-linecap="round" stroke-linejoin="round"/>
<path d="M192 280.701H199" stroke="#3B294A" stroke-width="8" stroke-linecap="round" stroke-linejoin="round"/>
<path d="M214 280.701H221" stroke="#3B294A" stroke-width="8" stroke-linecap="round" stroke-linejoin="round"/>
<g filter="url(#filter3_d)">
<path d="M174.5 71.2009C174.5 71.2009 192.5 57.7009 209 74.2009C225.5 90.7009 216 104.201 216 104.201L200.5 120.004L188.968 131.761L88 234.701L18.5 266.201L48.5 197.701L151.5 94.2922L163.121 82.6249L174.5 71.2009Z" fill="white"/>
<path d="M48.5 197.701L18.5 266.201L88 234.701M48.5 197.701L151.5 94.2922M48.5 197.701H68.5M88 234.701L188.968 131.761M88 234.701L85.5 214.201M200.5 120.004L216 104.201C216 104.201 225.5 90.7009 209 74.2009C192.5 57.7009 174.5 71.2009 174.5 71.2009L163.121 82.6249M200.5 120.004L163.121 82.6249M200.5 120.004L188.968 131.761M163.121 82.6249L151.5 94.2922M151.5 94.2922L161.409 104.201M188.968 131.761L177.211 120.004M177.211 120.004L163.121 134.094M177.211 120.004L161.409 104.201M161.409 104.201L116.5 149.701M105 161.701L95 171.201M68.5 197.701L63.5 218.201L85.5 214.201M68.5 197.701L82.5 183.701M85.5 214.201L151.5 149.701" stroke="#3B294A" stroke-width="10" stroke-linecap="round" stroke-linejoin="round"/>
<path d="M21.5956 262.199L31.8538 235.893L48.4739 253.55L21.5956 262.199Z" fill="#3B294A"/>
</g>
<defs>
<filter id="filter0_d" x="77" y="0" width="260" height="257" filterUnits="userSpaceOnUse" color-interpolation-filters="sRGB">
<feFlood flood-opacity="0" result="BackgroundImageFix"/>
<feColorMatrix in="SourceAlpha" type="matrix" values="0 0 0 0 0 0 0 0 0 0 0 0 0 0 0 0 0 0 127 0" result="hardAlpha"/>
<feOffset dx="3" dy="1"/>
<feGaussianBlur stdDeviation="4"/>
<feComposite in2="hardAlpha" operator="out"/>
<feColorMatrix type="matrix" values="0 0 0 0 0 0 0 0 0 0 0 0 0 0 0 0 0 0 0.32 0"/>
<feBlend mode="normal" in2="BackgroundImageFix" result="effect1_dropShadow"/>
<feBlend mode="normal" in="SourceGraphic" in2="effect1_dropShadow" result="shape"/>
</filter>
<filter id="filter1_d" x="10.8545" y="64.3014" width="237.146" height="226.497" filterUnits="userSpaceOnUse" color-interpolation-filters="sRGB">
<feFlood flood-opacity="0" result="BackgroundImageFix"/>
<feColorMatrix in="SourceAlpha" type="matrix" values="0 0 0 0 0 0 0 0 0 0 0 0 0 0 0 0 0 0 127 0" result="hardAlpha"/>
<feOffset dx="5" dy="6"/>
<feGaussianBlur stdDeviation="4"/>
<feComposite in2="hardAlpha" operator="out"/>
<feColorMatrix type="matrix" values="0 0 0 0 0 0 0 0 0 0 0 0 0 0 0 0 0 0 0.34 0"/>
<feBlend mode="normal" in2="BackgroundImageFix" result="effect1_dropShadow"/>
<feBlend mode="normal" in="SourceGraphic" in2="effect1_dropShadow" result="shape"/>
</filter>
<filter id="filter2_d" x="0.285583" y="61.0025" width="226.436" height="226.199" filterUnits="userSpaceOnUse" color-interpolation-filters="sRGB">
<feFlood flood-opacity="0" result="BackgroundImageFix"/>
<feColorMatrix in="SourceAlpha" type="matrix" values="0 0 0 0 0 0 0 0 0 0 0 0 0 0 0 0 0 0 127 0" result="hardAlpha"/>
<feOffset dx="5" dy="6"/>
<feGaussianBlur stdDeviation="4"/>
<feComposite in2="hardAlpha" operator="out"/>
<feColorMatrix type="matrix" values="0 0 0 0 0 0 0 0 0 0 0 0 0 0 0 0 0 0 0.34 0"/>
<feBlend mode="normal" in2="BackgroundImageFix" result="effect1_dropShadow"/>
<feBlend mode="normal" in="SourceGraphic" in2="effect1_dropShadow" result="shape"/>
</filter>
<filter id="filter3_d" x="10.2856" y="59.0025" width="226.436" height="226.199" filterUnits="userSpaceOnUse" color-interpolation-filters="sRGB">
<feFlood flood-opacity="0" result="BackgroundImageFix"/>
<feColorMatrix in="SourceAlpha" type="matrix" values="0 0 0 0 0 0 0 0 0 0 0 0 0 0 0 0 0 0 127 0" result="hardAlpha"/>
<feOffset dx="5" dy="6"/>
<feGaussianBlur stdDeviation="4"/>
<feComposite in2="hardAlpha" operator="out"/>
<feColorMatrix type="matrix" values="0 0 0 0 0 0 0 0 0 0 0 0 0 0 0 0 0 0 0.34 0"/>
<feBlend mode="normal" in2="BackgroundImageFix" result="effect1_dropShadow"/>
<feBlend mode="normal" in="SourceGraphic" in2="effect1_dropShadow" result="shape"/>
</filter>
</defs>
</svg>
