<svg width="302" height="289" viewBox="0 0 302 289" fill="none" xmlns="http://www.w3.org/2000/svg">
<g filter="url(#filter0_d)">
<circle cx="169" cy="129" r="115" fill="#87EF92"/>
<path d="M202 238C206.064 237.207 213.34 236.528 216.5 234C218.592 232.327 224.339 230.564 224.944 228.444C226.563 222.779 237.687 221.05 241.778 217.778C247.156 213.475 252.819 208.292 257.556 203.556C260.016 201.096 261.742 198.207 264.5 196C267.042 193.966 266.921 188.063 269.5 186C271.063 184.75 273.758 178.934 274 177C274.515 172.882 278.276 167.393 279.778 163.222C282.305 156.201 286 148.278 286 140.5C286 136 286 131.5 286 127C286 124.667 286 122.333 286 120C286 117.756 284.142 116.417 284 114C283.963 113.367 281.43 109.491 281 109.222C279.269 108.141 280 104.906 280 103C280 99.6844 280.833 92.7915 278.778 90.2222C276.772 87.7154 274.694 80.8712 273.944 77.5C273.575 75.8382 271.487 74.4562 270.944 72.5556C270.432 70.7608 269.011 68.3253 268 66.5556C266.107 63.2434 264.021 60.5769 261.222 57.7778C258.187 54.7424 256.791 50.5706 253.778 47.2222C249.281 42.2255 241.274 40.8429 237 35.5C234.984 32.9799 229.87 31.8375 228 29.5C227.521 28.9008 219.418 25 218.5 25C210.69 25 205.106 17 197 17C188.714 17 180.83 13 172.5 13C168.202 13 164.535 12 160 12C156.187 12 150.117 12.9063 147.222 15.2222C144.411 17.4711 139.892 16.2862 136.778 18.7778C133.866 21.1073 129.653 20.4773 126.778 22.7778C124.104 24.9168 117.606 22.2427 115 25.5C112.923 28.0965 108.199 28.7509 106 31.5C104.633 33.2091 100.769 36.1846 98.7778 37.7778C95.6924 40.2461 90.9449 39.8189 88.2222 43.2222C85.423 46.7212 77 54.2237 77 59.5C77 62.7872 71.9599 65.3905 71.0556 68.5556C70.094 71.9211 67.9567 74.9017 66.9445 78.4444C66.9441 78.4459 64.5394 81.9051 64.2222 82.2222C62.6263 83.8182 63.5065 85.6169 62.2222 87.2222C61.0644 88.6695 61.3527 90.8091 60.2222 92.2222C59.7018 92.8728 57.0326 96.4465 57 97C56.5296 104.997 53 112.063 53 120.5C53 128.671 52 138.253 52 147C52 151.878 55.7089 154.051 56 159C56.1072 160.822 58.916 168.326 60.2222 169.778C61.8036 171.535 63.2721 177.202 63.9445 179.556C64.7631 182.421 70.237 185.579 71.0556 188.444C71.6666 190.583 76.4875 194.043 78.2222 195.778C80.926 198.481 81.6891 201.611 83.7778 204.222C84.7327 205.416 84.1039 207.883 85.5 209C86.6932 209.955 88.0454 211.307 89 212.5C91.2373 215.297 93.9527 216.941 96 219.5C100.67 225.337 110.065 226.354 116.444 230C119.852 231.947 121.716 235.748 126 236C129.846 236.226 134.066 239 138 239C146.299 239 152.69 243 161.5 243C170.667 243 179.833 243 189 243C193.083 243 197.528 242.378 200.778 239.778C202.629 238.297 204.9 239.711 207 238.778C208.811 237.973 210.328 236.836 212 236" stroke="#87EF92" stroke-width="10" stroke-linecap="round"/>
<path d="M283 115C282.245 111.13 280 107.741 280 104C280 101.667 280 99.3333 280 97" stroke="#87EF92" stroke-width="10" stroke-linecap="round"/>
</g>
<g filter="url(#filter1_d)">
<path d="M75.7404 261.451C75.1814 264.504 74.037 267.253 72.3074 269.698C70.6732 272.16 68.6708 274.209 66.3001 275.846C63.9294 277.483 61.3034 278.629 58.422 279.285C55.5406 279.941 52.6209 279.998 49.663 279.457C46.705 278.915 43.9949 277.827 41.5328 276.193C39.0707 274.559 37.0212 272.556 35.3843 270.186C33.7474 267.815 32.601 265.189 31.9452 262.308C31.2893 259.426 31.2409 256.459 31.8 253.405C32.3416 250.447 33.4294 247.737 35.0636 245.275C36.6978 242.813 38.6916 240.811 41.0448 239.27C43.398 237.728 46.0153 236.63 48.8966 235.974C51.778 235.318 54.6977 235.261 57.6557 235.803C60.6137 236.344 63.3237 237.432 65.7858 239.066C68.2479 240.7 70.3061 242.655 71.9605 244.93C73.6149 247.206 74.77 249.784 75.4259 252.665C76.1772 255.564 76.282 258.493 75.7404 261.451ZM161.532 135.445C160.257 142.41 158.188 148.59 155.327 153.983C152.579 159.298 149.306 163.975 145.51 168.014C141.731 171.957 137.553 175.383 132.977 178.293C128.514 181.124 123.921 183.587 119.199 185.681C114.494 187.679 109.784 189.431 105.071 190.935C100.376 192.343 96.0011 193.613 91.9478 194.745C87.5733 196.015 83.854 197.207 80.7899 198.323C77.7257 199.438 75.1602 200.793 73.0932 202.387C71.0263 203.981 69.3753 205.996 68.1402 208.433C66.9051 210.869 65.9207 214.091 65.187 218.099L64.4794 221.963C64.13 223.872 63.1476 225.467 61.5322 226.749C60.0297 227.953 58.3068 228.476 56.3635 228.318C54.1688 227.916 52.4217 226.955 51.1221 225.435C49.84 223.819 49.2782 222.04 49.4368 220.097C49.4892 219.81 49.5463 219.229 49.6082 218.353C49.67 217.477 49.8232 216.371 50.0678 215.035C50.8539 210.741 52.1212 206.782 53.8697 203.157C55.7135 199.55 57.8954 196.251 60.4152 193.261C62.935 190.271 65.7062 187.524 68.7287 185.02C71.8466 182.534 75.1291 180.226 78.5763 178.095C82.1713 175.697 85.6796 173.232 89.1012 170.703C92.6183 168.191 95.8497 165.085 98.7956 161.384C101.837 157.7 104.532 153.213 106.881 147.923C109.23 142.634 111.121 136.077 112.554 128.252C113.794 121.478 113.737 115.057 112.382 108.99C111.028 102.924 108.666 97.5113 105.296 92.7525C102.023 88.0111 97.8194 84.0365 92.687 80.8285C87.6499 77.6381 82.0302 75.4751 75.828 74.3395C71.5341 73.5533 67.1133 73.7301 62.5654 74.8697C58.113 76.0269 53.9764 77.8829 50.1556 80.4377C46.4478 82.9146 43.2338 85.9257 40.5137 89.471C37.889 93.0338 36.2098 96.8189 35.476 100.827C34.8296 104.357 34.6697 107.385 34.9963 109.91C35.4358 112.357 35.9929 114.432 36.6675 116.133C37.3596 117.739 38.0262 118.946 38.6673 119.754C39.4213 120.483 39.8372 120.905 39.9151 121.018C42.6796 123.693 43.8085 126.415 43.3019 129.182C42.9525 131.09 41.9224 132.677 40.2116 133.942C38.5962 135.224 36.7389 135.673 34.6396 135.288C33.8763 135.148 33.1304 134.913 32.402 134.583C31.769 134.27 31.132 133.709 30.4909 132.901C30.3176 132.771 29.5159 132.033 28.0859 130.686C26.6735 129.244 25.1924 127.099 23.6429 124.251C22.2062 121.326 21.0437 117.71 20.1553 113.406C19.3624 109.119 19.5075 104.017 20.5907 98.1011C22.1106 89.7997 25.4032 82.8583 30.4684 77.2769C35.6291 71.713 41.6861 67.4473 48.6396 64.4799C55.6105 61.4171 63.0572 59.5261 70.9797 58.8071C78.9976 58.1055 86.6324 58.4186 93.8843 59.7463C105.43 61.8602 115.742 65.3262 124.82 70.1441C134.011 74.8841 141.592 80.6112 147.562 87.3254C153.549 93.9442 157.761 101.372 160.197 109.609C162.729 117.863 163.174 126.475 161.532 135.445Z" fill="#3B294A"/>
</g>
<defs>
<filter id="filter0_d" x="42" y="0" width="260" height="257" filterUnits="userSpaceOnUse" color-interpolation-filters="sRGB">
<feFlood flood-opacity="0" result="BackgroundImageFix"/>
<feColorMatrix in="SourceAlpha" type="matrix" values="0 0 0 0 0 0 0 0 0 0 0 0 0 0 0 0 0 0 127 0" result="hardAlpha"/>
<feOffset dx="3" dy="1"/>
<feGaussianBlur stdDeviation="4"/>
<feComposite in2="hardAlpha" operator="out"/>
<feColorMatrix type="matrix" values="0 0 0 0 0 0 0 0 0 0 0 0 0 0 0 0 0 0 0.32 0"/>
<feBlend mode="normal" in2="BackgroundImageFix" result="effect1_dropShadow"/>
<feBlend mode="normal" in="SourceGraphic" in2="effect1_dropShadow" result="shape"/>
</filter>
<filter id="filter1_d" x="19.6526" y="58.4432" width="154.849" height="230.381" filterUnits="userSpaceOnUse" color-interpolation-filters="sRGB">
<feFlood flood-opacity="0" result="BackgroundImageFix"/>
<feColorMatrix in="SourceAlpha" type="matrix" values="0 0 0 0 0 0 0 0 0 0 0 0 0 0 0 0 0 0 127 0" result="hardAlpha"/>
<feOffset dx="8" dy="5"/>
<feGaussianBlur stdDeviation="2"/>
<feComposite in2="hardAlpha" operator="out"/>
<feColorMatrix type="matrix" values="0 0 0 0 0 0 0 0 0 0 0 0 0 0 0 0 0 0 0.29 0"/>
<feBlend mode="normal" in2="BackgroundImageFix" result="effect1_dropShadow"/>
<feBlend mode="normal" in="SourceGraphic" in2="effect1_dropShadow" result="shape"/>
</filter>
</defs>
</svg>
