<svg width="286" height="305" viewBox="0 0 286 305" fill="none" xmlns="http://www.w3.org/2000/svg">
<g filter="url(#filter0_d)">
<circle cx="153" cy="129" r="115" fill="#47EAAF"/>
<path d="M186 238C190.064 237.207 197.34 236.528 200.5 234C202.592 232.327 208.339 230.564 208.944 228.444C210.563 222.779 221.687 221.05 225.778 217.778C231.156 213.475 236.819 208.292 241.556 203.556C244.016 201.096 245.742 198.207 248.5 196C251.042 193.966 250.921 188.063 253.5 186C255.063 184.75 257.758 178.934 258 177C258.515 172.882 262.276 167.393 263.778 163.222C266.305 156.201 270 148.278 270 140.5C270 136 270 131.5 270 127C270 124.667 270 122.333 270 120C270 117.756 268.142 116.417 268 114C267.963 113.367 265.43 109.491 265 109.222C263.269 108.141 264 104.906 264 103C264 99.6844 264.833 92.7915 262.778 90.2222C260.772 87.7154 258.694 80.8712 257.944 77.5C257.575 75.8382 255.487 74.4562 254.944 72.5556C254.432 70.7608 253.011 68.3253 252 66.5556C250.107 63.2434 248.021 60.5769 245.222 57.7778C242.187 54.7424 240.791 50.5706 237.778 47.2222C233.281 42.2255 225.274 40.8429 221 35.5C218.984 32.9799 213.87 31.8375 212 29.5C211.521 28.9008 203.418 25 202.5 25C194.69 25 189.106 17 181 17C172.714 17 164.83 13 156.5 13C152.202 13 148.535 12 144 12C140.187 12 134.117 12.9063 131.222 15.2222C128.411 17.4711 123.892 16.2862 120.778 18.7778C117.866 21.1073 113.653 20.4773 110.778 22.7778C108.104 24.9168 101.606 22.2427 99 25.5C96.9228 28.0965 92.1993 28.7509 90 31.5C88.6327 33.2091 84.7692 36.1846 82.7778 37.7778C79.6924 40.2461 74.9449 39.8189 72.2222 43.2222C69.423 46.7212 61 54.2237 61 59.5C61 62.7872 55.9599 65.3905 55.0556 68.5556C54.094 71.9211 51.9567 74.9017 50.9445 78.4444C50.9441 78.4459 48.5394 81.9051 48.2222 82.2222C46.6263 83.8182 47.5065 85.6169 46.2222 87.2222C45.0644 88.6695 45.3527 90.8091 44.2222 92.2222C43.7018 92.8728 41.0326 96.4465 41 97C40.5296 104.997 37 112.063 37 120.5C37 128.671 36 138.253 36 147C36 151.878 39.7089 154.051 40 159C40.1072 160.822 42.916 168.326 44.2222 169.778C45.8036 171.535 47.2721 177.202 47.9445 179.556C48.7631 182.421 54.237 185.579 55.0556 188.444C55.6666 190.583 60.4875 194.043 62.2222 195.778C64.926 198.481 65.6891 201.611 67.7778 204.222C68.7327 205.416 68.1039 207.883 69.5 209C70.6932 209.955 72.0454 211.307 73 212.5C75.2373 215.297 77.9527 216.941 80 219.5C84.6696 225.337 94.0647 226.354 100.444 230C103.852 231.947 105.716 235.748 110 236C113.846 236.226 118.066 239 122 239C130.299 239 136.69 243 145.5 243C154.667 243 163.833 243 173 243C177.083 243 181.528 242.378 184.778 239.778C186.629 238.297 188.9 239.711 191 238.778C192.811 237.973 194.328 236.836 196 236" stroke="#47EAAF" stroke-width="10" stroke-linecap="round"/>
<path d="M267 115C266.245 111.13 264 107.741 264 104C264 101.667 264 99.3333 264 97" stroke="#47EAAF" stroke-width="10" stroke-linecap="round"/>
</g>
<g filter="url(#filter1_d)">
<path d="M90.0669 271.421C88.8967 275.311 87.0094 278.72 84.4051 281.649C81.9223 284.614 79.0204 286.989 75.6994 288.774C72.3784 290.559 68.7965 291.669 64.9537 292.104C61.1108 292.539 57.305 292.19 53.5363 291.056C49.7676 289.923 46.4006 288.114 43.4354 285.632C40.4702 283.149 38.0951 280.247 36.31 276.926C34.5249 273.605 33.4149 270.023 32.98 266.18C32.5451 262.337 32.9127 258.471 34.0829 254.581C35.2165 250.812 37.0247 247.445 39.5075 244.48C41.9903 241.514 44.8739 239.2 48.1583 237.537C51.4427 235.873 55.0064 234.824 58.8492 234.389C62.6921 233.954 66.4978 234.303 70.2666 235.437C74.0353 236.571 77.4023 238.379 80.3675 240.862C83.3327 243.344 85.7261 246.186 87.5477 249.385C89.3694 252.584 90.4977 256.105 90.9326 259.948C91.4891 263.828 91.2006 267.652 90.0669 271.421ZM219.936 119.979C217.267 128.854 213.68 136.591 209.176 143.191C204.83 149.705 199.895 155.313 194.371 160.015C188.884 164.595 182.953 168.446 176.579 171.566C170.363 174.601 164.032 177.138 157.586 179.176C151.176 181.093 144.797 182.687 138.448 183.959C132.137 185.11 126.263 186.127 120.827 187.011C114.953 188.028 109.942 189.04 105.795 190.046C101.647 191.052 98.1139 192.442 95.1942 194.215C92.2746 195.988 89.8348 198.37 87.8748 201.36C85.9149 204.35 84.167 208.398 82.6311 213.504L81.15 218.427C80.4186 220.859 78.9094 222.791 76.6223 224.224C74.4933 225.572 72.1765 226.002 69.672 225.514C66.8758 224.673 64.7428 223.17 63.2731 221.004C61.8399 218.717 61.3674 216.321 61.8556 213.817C61.9653 213.452 62.124 212.704 62.3315 211.573C62.5391 210.443 62.8988 209.026 63.4108 207.324C65.0564 201.854 67.2792 196.888 70.0793 192.427C73.0009 188.003 76.3174 184.029 80.0287 180.506C83.7401 176.982 87.743 173.811 92.0375 170.993C96.4536 168.212 101.058 165.686 105.851 163.416C110.875 160.817 115.795 158.121 120.613 155.328C125.552 152.571 130.205 149 134.574 144.613C139.064 140.263 143.221 134.819 147.044 128.279C150.867 121.74 154.278 113.486 157.276 103.517C159.873 94.8856 160.73 86.5263 159.848 78.4393C158.967 70.3523 156.68 62.9696 152.988 56.2911C149.418 49.6491 144.528 43.8696 138.318 38.9524C132.229 34.0719 125.234 30.4431 117.332 28.0661C111.861 26.4205 106.085 26.0089 100.005 26.8313C94.0457 27.6903 88.3961 29.504 83.0559 32.2726C77.8738 34.9561 73.2566 38.4062 69.2042 42.6227C65.2734 46.8758 62.5401 51.5553 61.0042 56.6613C59.6512 61.1595 59.0038 65.0745 59.0622 68.4064C59.2787 71.6532 59.7022 74.4321 60.3328 76.7429C61 78.9322 61.6919 80.5986 62.4085 81.7422C63.2833 82.8007 63.7631 83.4091 63.8481 83.5672C67.0555 87.4486 68.1289 91.1521 67.0684 94.6777C66.3371 97.1091 64.767 99.0231 62.3583 100.42C60.0712 101.853 57.5904 102.167 54.9158 101.363C53.9432 101.07 53.0072 100.656 52.1078 100.12C51.3299 99.6213 50.5827 98.7999 49.8661 97.6564C49.6595 97.4617 48.724 96.3848 47.0595 94.4259C45.4316 92.3453 43.8165 89.3406 42.2143 85.4118C40.7702 81.398 39.7828 76.5272 39.2519 70.7995C38.8427 65.1084 39.7717 58.4941 42.0389 50.9566C45.2204 40.3798 50.5102 31.8292 57.9082 25.3048C65.4278 18.8169 73.9249 14.1476 83.3996 11.297C92.9108 8.3248 102.871 6.94588 113.279 7.16023C123.81 7.41116 133.695 8.92624 142.934 11.7055C157.644 16.1303 170.554 22.1346 181.662 29.7184C192.929 37.2172 201.958 45.7661 208.748 55.3653C215.575 64.8428 219.975 75.1151 221.949 86.1821C224.045 97.2856 223.374 108.551 219.936 119.979Z" fill="white"/>
</g>
<path d="M80.2157 259.693C79.222 263.32 77.5537 266.518 75.2108 269.288C72.9812 272.089 70.3504 274.353 67.3182 276.081C64.286 277.809 60.9969 278.918 57.4508 279.409C53.9048 279.899 50.375 279.663 46.8616 278.7C43.3482 277.738 40.1912 276.142 37.3904 273.912C34.5897 271.683 32.3254 269.052 30.5975 266.019C28.8696 262.987 27.7603 259.698 27.2698 256.152C26.7793 252.606 27.031 249.02 28.0247 245.393C28.9874 241.88 30.5835 238.722 32.813 235.922C35.0426 233.121 37.6579 230.913 40.6591 229.299C43.6602 227.684 46.9338 226.632 50.4798 226.141C54.0259 225.651 57.5556 225.887 61.069 226.849C64.5824 227.812 67.7395 229.408 70.5402 231.638C73.341 233.867 75.6208 236.442 77.3798 239.36C79.1387 242.279 80.2635 245.512 80.754 249.058C81.3578 252.635 81.1784 256.18 80.2157 259.693ZM196.922 116.581C194.655 124.854 191.513 132.096 187.497 138.306C183.625 144.434 179.186 149.737 174.182 154.214C169.209 158.578 163.81 162.277 157.983 165.311C152.3 168.262 146.5 170.754 140.581 172.788C134.694 174.708 128.828 176.33 122.982 177.652C117.168 178.862 111.756 179.937 106.746 180.88C101.333 181.955 96.72 183.006 92.9053 184.032C89.0907 185.059 85.8528 186.426 83.1917 188.133C80.5305 189.841 78.3274 192.101 76.5823 194.912C74.8371 197.724 73.3124 201.51 72.0081 206.27L70.7504 210.86C70.1293 213.127 68.777 214.949 66.6934 216.328C64.7542 217.624 62.6203 218.075 60.2914 217.681C57.6847 216.967 55.6765 215.624 54.2669 213.654C52.8883 211.571 52.3962 209.364 52.7906 207.036C52.8837 206.696 53.0134 206 53.1795 204.949C53.3457 203.898 53.6462 202.579 54.0809 200.992C55.4784 195.892 57.4215 191.246 59.9104 187.054C62.5126 182.894 65.4905 179.14 68.8441 175.795C72.1977 172.449 75.8292 169.423 79.7386 166.717C83.7614 164.042 87.9642 161.599 92.3471 159.389C96.9365 156.869 101.428 154.262 105.822 151.567C110.329 148.903 114.554 145.491 118.496 141.332C122.551 137.204 126.273 132.07 129.661 125.932C133.048 119.793 136.016 112.077 138.562 102.783C140.767 94.7364 141.369 86.9814 140.368 79.5183C139.366 72.0551 137.081 65.2758 133.512 59.1804C130.056 53.116 125.399 47.8799 119.54 43.472C113.794 39.0952 107.237 35.8975 99.8705 33.879C94.7704 32.4816 89.4164 32.233 83.8086 33.1333C78.3141 34.0647 73.1277 35.8725 68.2495 38.5567C63.5157 41.1587 59.3222 44.457 55.6689 48.4516C52.129 52.4772 49.7069 56.8701 48.4026 61.6302C47.2536 65.8236 46.7442 69.4612 46.8745 72.5431C47.1493 75.5426 47.6049 78.1043 48.2413 80.2282C48.9089 82.2388 49.5873 83.765 50.2766 84.8068C51.1103 85.7663 51.5683 86.3182 51.6506 86.4626C54.7075 89.9808 55.7856 93.3832 54.885 96.67C54.2639 98.9367 52.8549 100.744 50.658 102.091C48.5745 103.47 46.286 103.818 43.7926 103.134C42.8859 102.886 42.0103 102.524 41.1657 102.049C40.4345 101.605 39.7242 100.862 39.0349 99.8204C38.8393 99.645 37.9489 98.67 36.3638 96.8953C34.8098 95.0074 33.2464 92.264 31.6738 88.6651C30.2456 84.984 29.2202 80.4994 28.5978 75.2114C28.0887 69.9544 28.7969 63.8125 30.7222 56.7857C33.424 46.9255 38.123 38.892 44.8193 32.6851C51.629 26.5092 59.3849 21.9938 68.0871 19.1389C76.8203 16.1707 86.0052 14.6665 95.6419 14.6265C105.392 14.6174 114.574 15.793 123.187 18.1531C136.901 21.9107 148.984 27.1711 159.437 33.9343C170.035 40.6152 178.585 48.3192 185.089 57.0463C191.623 65.6601 195.93 75.0648 198.011 85.2605C200.204 95.4872 199.841 105.927 196.922 116.581Z" fill="white"/>
<path d="M75.2108 269.288L70.6299 265.413L70.5722 265.481L70.5165 265.551L75.2108 269.288ZM32.813 235.922L28.1188 232.185L32.813 235.922ZM80.754 249.058L74.8106 249.88L74.8228 249.968L74.8377 250.056L80.754 249.058ZM187.497 138.306L182.459 135.048L182.442 135.074L182.425 135.101L187.497 138.306ZM174.182 154.214L178.14 158.724L178.162 158.705L178.183 158.686L174.182 154.214ZM157.983 165.311L160.748 170.635L160.753 170.633L157.983 165.311ZM140.581 172.788L142.442 178.492L142.487 178.478L142.531 178.462L140.581 172.788ZM122.982 177.652L124.204 183.527L124.255 183.516L124.306 183.504L122.982 177.652ZM106.746 180.88L105.637 174.983L105.606 174.989L105.576 174.995L106.746 180.88ZM83.1917 188.133L86.4322 193.183L83.1917 188.133ZM66.6934 216.328L63.3826 211.324L63.3707 211.332L63.3589 211.34L66.6934 216.328ZM60.2914 217.681L58.7059 223.468L58.9945 223.547L59.2895 223.597L60.2914 217.681ZM54.2669 213.654L49.263 216.965L49.3235 217.056L49.3872 217.145L54.2669 213.654ZM52.7906 207.036L47.0039 205.45L46.9248 205.739L46.8748 206.034L52.7906 207.036ZM59.9104 187.054L54.8233 183.873L54.7866 183.932L54.7512 183.991L59.9104 187.054ZM79.7386 166.717L76.4164 161.721L76.3698 161.752L76.3238 161.784L79.7386 166.717ZM92.3471 159.389L95.0492 164.746L95.1428 164.699L95.2347 164.648L92.3471 159.389ZM105.822 151.567L102.769 146.401L102.727 146.426L102.685 146.452L105.822 151.567ZM118.496 141.332L114.216 137.127L114.178 137.165L114.141 137.204L118.496 141.332ZM133.512 59.1804L128.299 62.151L128.317 62.1817L128.334 62.2122L133.512 59.1804ZM119.54 43.472L115.904 48.245L115.918 48.2559L115.932 48.2667L119.54 43.472ZM83.8086 33.1333L82.8575 27.2092L82.8316 27.2133L82.8058 27.2177L83.8086 33.1333ZM68.2495 38.5567L71.1396 43.8148L71.142 43.8135L68.2495 38.5567ZM55.6689 48.4516L51.2413 44.4023L51.2018 44.4455L51.1631 44.4895L55.6689 48.4516ZM46.8745 72.5431L40.8799 72.7966L40.8861 72.9437L40.8996 73.0903L46.8745 72.5431ZM48.2413 80.2282L42.4939 81.9506L42.5192 82.0351L42.547 82.1188L48.2413 80.2282ZM50.2766 84.8068L45.2728 88.1176L45.4897 88.4454L45.7474 88.7421L50.2766 84.8068ZM51.6506 86.4626L46.4376 89.4333L46.7317 89.9495L47.1214 90.3979L51.6506 86.4626ZM50.658 102.091L47.5209 96.9769L47.4331 97.0307L47.3472 97.0875L50.658 102.091ZM41.1657 102.049L38.0514 107.178L38.1369 107.23L38.224 107.279L41.1657 102.049ZM39.0349 99.8204L44.0388 96.5096L43.614 95.8677L43.041 95.3537L39.0349 99.8204ZM36.3638 96.8953L31.7314 100.709L31.8083 100.802L31.889 100.892L36.3638 96.8953ZM31.6738 88.6651L26.0801 90.8354L26.1255 90.9525L26.1758 91.0676L31.6738 88.6651ZM28.5978 75.2114L22.6257 75.7897L22.6317 75.8513L22.6389 75.9128L28.5978 75.2114ZM44.8193 32.6851L40.7886 28.2406L40.7644 28.2625L40.7405 28.2847L44.8193 32.6851ZM68.0871 19.1389L69.9574 24.84L69.9877 24.83L70.0179 24.8198L68.0871 19.1389ZM95.6419 14.6265L95.6363 8.62646L95.6266 8.62646L95.6169 8.6265L95.6419 14.6265ZM159.437 33.9343L156.178 38.9718L156.208 38.991L156.238 39.0099L159.437 33.9343ZM185.089 57.0463L180.278 60.6315L180.293 60.6521L180.309 60.6726L185.089 57.0463ZM198.011 85.2605L192.132 86.4599L192.138 86.4894L192.144 86.5188L198.011 85.2605ZM74.429 258.108C73.6572 260.925 72.3883 263.334 70.6299 265.413L79.7917 273.163C82.719 269.702 84.7867 265.716 86.0024 261.279L74.429 258.108ZM70.5165 265.551C68.7499 267.77 66.6993 269.528 64.3475 270.868L70.2888 281.294C74.0014 279.178 77.2125 276.407 79.905 273.025L70.5165 265.551ZM64.3475 270.868C61.9957 272.208 59.4385 273.077 56.6287 273.465L58.2729 285.352C62.5552 284.76 66.5762 283.41 70.2888 281.294L64.3475 270.868ZM56.6287 273.465C53.902 273.842 51.1911 273.666 48.4472 272.914L45.2761 284.487C49.559 285.661 53.9076 285.956 58.2729 285.352L56.6287 273.465ZM48.4472 272.914C45.7033 272.162 43.2809 270.932 41.1273 269.218L33.6536 278.606C37.1014 281.351 40.9932 283.314 45.2761 284.487L48.4472 272.914ZM41.1273 269.218C38.9081 267.451 37.1506 265.401 35.8104 263.049L25.3845 268.99C27.5001 272.703 30.2713 275.914 33.6536 278.606L41.1273 269.218ZM35.8104 263.049C34.4703 260.697 33.6019 258.14 33.2133 255.33L21.3264 256.974C21.9188 261.257 23.2688 265.278 25.3845 268.99L35.8104 263.049ZM33.2133 255.33C32.8397 252.629 33.0214 249.862 33.8114 246.979L22.238 243.807C21.0406 248.178 20.719 252.583 21.3264 256.974L33.2133 255.33ZM33.8114 246.979C34.5632 244.235 35.7929 241.812 37.5073 239.659L28.1188 232.185C25.3741 235.633 23.4115 239.524 22.238 243.807L33.8114 246.979ZM37.5073 239.659C39.2568 237.461 41.252 235.793 43.5017 234.583L37.8164 224.015C34.0638 226.034 30.8284 228.781 28.1188 232.185L37.5073 239.659ZM43.5017 234.583C45.8426 233.323 48.4272 232.482 51.3019 232.085L49.6577 220.198C45.4404 220.781 41.4777 222.045 37.8164 224.015L43.5017 234.583ZM51.3019 232.085C54.0287 231.707 56.7395 231.884 59.4834 232.636L62.6546 221.063C58.3717 219.889 54.0231 219.594 49.6577 220.198L51.3019 232.085ZM59.4834 232.636C62.2273 233.388 64.6497 234.618 66.8033 236.332L74.2771 226.944C70.8292 224.199 66.9375 222.236 62.6546 221.063L59.4834 232.636ZM66.8033 236.332C69.0739 238.139 70.8687 240.181 72.2408 242.457L82.5188 236.264C80.3729 232.703 77.608 229.595 74.2771 226.944L66.8033 236.332ZM72.2408 242.457C73.5593 244.645 74.4257 247.097 74.8106 249.88L86.6974 248.236C86.1013 243.926 84.7182 239.913 82.5188 236.264L72.2408 242.457ZM74.8377 250.056C75.2956 252.769 75.162 255.433 74.429 258.108L86.0024 261.279C87.1947 256.928 87.42 252.5 86.6703 248.059L74.8377 250.056ZM191.135 114.995C189.006 122.769 186.093 129.429 182.459 135.048L192.535 141.565C196.934 134.764 200.305 126.94 202.709 118.166L191.135 114.995ZM182.425 135.101C178.826 140.796 174.74 145.664 170.182 149.743L178.183 158.686C183.633 153.809 188.423 148.072 192.569 141.511L182.425 135.101ZM170.225 149.704C165.611 153.753 160.609 157.179 155.212 159.989L160.753 170.633C167.01 167.375 172.808 163.403 178.14 158.724L170.225 149.704ZM155.217 159.986C149.792 162.804 144.264 165.178 138.632 167.114L142.531 178.462C148.736 176.33 154.809 173.72 160.748 170.635L155.217 159.986ZM138.721 167.084C133.004 168.948 127.317 170.52 121.658 171.8L124.306 183.504C130.339 182.14 136.384 180.468 142.442 178.492L138.721 167.084ZM121.761 171.778C115.978 172.981 110.604 174.049 105.637 174.983L107.855 186.776C112.908 185.826 118.358 184.742 124.204 183.527L121.761 171.778ZM105.576 174.995C100.08 176.087 95.3291 177.167 91.3468 178.238L94.4639 189.827C98.1109 188.845 102.587 187.824 107.915 186.765L105.576 174.995ZM91.3468 178.238C87.0784 179.387 83.242 180.972 79.9511 183.084L86.4322 193.183C88.4636 191.879 91.103 190.731 94.4639 189.827L91.3468 178.238ZM79.9511 183.084C76.5032 185.296 73.6781 188.214 71.4844 191.748L81.6801 198.076C82.9767 195.988 84.5579 194.386 86.4322 193.183L79.9511 183.084ZM71.4844 191.748C69.325 195.227 67.6111 199.613 66.2214 204.684L77.7948 207.855C79.0137 203.407 80.3492 200.221 81.6801 198.076L71.4844 191.748ZM66.2214 204.684L64.9637 209.274L76.5371 212.446L77.7948 207.855L66.2214 204.684ZM64.9637 209.274C64.7522 210.046 64.3372 210.693 63.3826 211.324L70.0043 221.332C73.2168 219.206 75.5064 216.207 76.5371 212.446L64.9637 209.274ZM63.3589 211.34C62.7115 211.773 62.1325 211.907 61.2933 211.765L59.2895 223.597C63.108 224.243 66.797 223.476 70.0279 221.316L63.3589 211.34ZM61.877 211.894C60.4361 211.499 59.6611 210.882 59.1465 210.163L49.3872 217.145C51.692 220.367 54.9333 222.434 58.7059 223.468L61.877 211.894ZM59.2707 210.343C58.6789 209.449 58.5819 208.772 58.7063 208.037L46.8748 206.034C46.2105 209.956 47.0976 213.692 49.263 216.965L59.2707 210.343ZM58.5773 208.621C58.773 207.907 58.9488 206.88 59.106 205.886L47.2531 204.012C47.1748 204.507 47.1104 204.885 47.0593 205.159C47.0011 205.472 46.982 205.53 47.0039 205.45L58.5773 208.621ZM59.106 205.886C59.2243 205.137 59.4635 204.053 59.8676 202.578L48.2942 199.407C47.8288 201.105 47.4671 202.658 47.2531 204.012L59.106 205.886ZM59.8676 202.578C61.135 197.953 62.8772 193.81 65.0695 190.118L54.7512 183.991C51.9658 188.682 49.8218 193.832 48.2942 199.407L59.8676 202.578ZM64.9974 190.236C67.3666 186.448 70.0622 183.055 73.0817 180.042L64.6065 171.547C60.9187 175.226 57.6586 179.339 54.8233 183.873L64.9974 190.236ZM73.0817 180.042C76.1811 176.95 79.5371 174.154 83.1534 171.651L76.3238 161.784C72.1213 164.693 68.2143 167.948 64.6065 171.547L73.0817 180.042ZM83.0609 171.713C86.8811 169.173 90.8766 166.851 95.0492 164.746L89.645 154.032C85.0518 156.348 80.6416 158.911 76.4164 161.721L83.0609 171.713ZM95.2347 164.648C99.9071 162.083 104.482 159.427 108.959 156.681L102.685 146.452C98.3743 149.096 93.966 151.655 89.4596 154.129L95.2347 164.648ZM108.875 156.732C113.905 153.759 118.561 149.985 122.851 145.459L114.141 137.204C110.547 140.997 106.753 144.047 102.769 146.401L108.875 156.732ZM122.776 145.537C127.284 140.948 131.316 135.35 134.914 128.831L124.407 123.032C121.23 128.791 117.818 133.46 114.216 137.127L122.776 145.537ZM134.914 128.831C138.598 122.155 141.72 113.962 144.349 104.369L132.775 101.198C130.311 110.191 127.499 117.431 124.407 123.032L134.914 128.831ZM144.349 104.369C146.743 95.6303 147.433 87.0629 146.314 78.7205L134.421 80.316C135.304 86.9 134.791 93.8425 132.775 101.198L144.349 104.369ZM146.314 78.7205C145.214 70.5218 142.687 62.9749 138.69 56.1486L128.334 62.2122C131.476 67.5768 133.518 73.5884 134.421 80.316L146.314 78.7205ZM138.725 56.2097C134.844 49.3985 129.626 43.552 123.147 38.6773L115.932 48.2667C121.171 52.2078 125.269 56.8335 128.299 62.151L138.725 56.2097ZM123.175 38.699C116.783 33.8296 109.522 30.3023 101.456 28.0923L98.2849 39.6657C104.953 41.4928 110.805 44.3609 115.904 48.245L123.175 38.699ZM101.456 28.0923C95.47 26.4521 89.2474 26.1833 82.8575 27.2092L84.7597 39.0575C89.5855 38.2827 94.0709 38.511 98.2849 39.6657L101.456 28.0923ZM82.8058 27.2177C76.6496 28.2613 70.8243 30.2916 65.357 33.3L71.142 43.8135C75.4311 41.4534 79.9786 39.8681 84.8113 39.0489L82.8058 27.2177ZM65.3594 33.2987C60.0492 36.2174 55.3365 39.9244 51.2413 44.4023L60.0965 52.5008C63.3078 48.9895 66.9822 46.0999 71.1396 43.8148L65.3594 33.2987ZM51.1631 44.4895C47.074 49.1397 44.1813 54.3314 42.6159 60.0446L54.1893 63.2158C55.2324 59.4088 57.1839 55.8148 60.1746 52.4137L51.1631 44.4895ZM42.6159 60.0446C41.3644 64.6119 40.715 68.8983 40.8799 72.7966L52.8692 72.2896C52.7734 70.0242 53.1427 67.0354 54.1893 63.2158L42.6159 60.0446ZM40.8996 73.0903C41.1987 76.3569 41.7101 79.3351 42.4939 81.9506L53.9888 78.5059C53.4996 76.8735 53.0998 74.7283 52.8495 71.9958L40.8996 73.0903ZM42.547 82.1188C43.2828 84.335 44.1589 86.4342 45.2728 88.1176L55.2805 81.496C55.0157 81.0958 54.535 80.1426 53.9357 78.3376L42.547 82.1188ZM45.7474 88.7421C46.1534 89.2093 46.4419 89.5475 46.628 89.7718C46.723 89.8863 46.7675 89.9425 46.7779 89.9559C46.7834 89.963 46.7608 89.9343 46.7225 89.8807C46.7025 89.8528 46.6688 89.8049 46.6269 89.7416C46.5886 89.6837 46.5189 89.5759 46.4376 89.4333L56.8636 83.492C56.5001 82.8541 55.9482 82.2119 55.8628 82.109C55.5909 81.7813 55.2335 81.3638 54.8058 80.8715L45.7474 88.7421ZM47.1214 90.3979C49.3935 93.0129 49.2856 94.401 49.0983 95.0844L60.6717 98.2556C62.2856 92.3655 60.0214 86.9487 56.1797 82.5273L47.1214 90.3979ZM49.0983 95.0844C48.9205 95.7333 48.555 96.3425 47.5209 96.9769L53.7952 107.206C57.1549 105.145 59.6074 102.14 60.6717 98.2556L49.0983 95.0844ZM47.3472 97.0875C46.7629 97.4741 46.2692 97.5919 45.3782 97.3478L42.207 108.921C46.3028 110.043 50.386 109.466 53.9689 107.095L47.3472 97.0875ZM45.3782 97.3478C44.959 97.2329 44.5377 97.0618 44.1075 96.8198L38.224 107.279C39.4829 107.987 40.8128 108.539 42.207 108.921L45.3782 97.3478ZM44.28 96.9207C44.4425 97.0194 44.4841 97.0782 44.4215 97.0127C44.359 96.9473 44.2268 96.7938 44.0388 96.5096L34.0311 103.131C35.0016 104.598 36.2983 106.113 38.0514 107.178L44.28 96.9207ZM43.041 95.3537C43.1613 95.4616 43.2328 95.5364 43.2059 95.5091C43.1993 95.5023 43.1731 95.4754 43.1211 95.4203C43.018 95.3111 42.864 95.1448 42.6511 94.9117C42.228 94.4483 41.6262 93.78 40.8387 92.8984L31.889 100.892C32.6866 101.785 33.3225 102.492 33.7898 103.003C34.1295 103.375 34.6503 103.948 35.0288 104.287L43.041 95.3537ZM40.9963 93.0822C39.9414 91.8006 38.6393 89.621 37.1718 86.2626L26.1758 91.0676C27.8535 94.907 29.6782 98.2142 31.7314 100.709L40.9963 93.0822ZM37.2675 86.4948C36.0735 83.4172 35.139 79.4572 34.5567 74.51L22.6389 75.9128C23.3015 81.5416 24.4177 86.5507 26.0801 90.8354L37.2675 86.4948ZM34.5699 74.633C34.1523 70.3212 34.7084 64.9426 36.5089 58.3713L24.9355 55.2002C22.8853 62.6825 22.0251 69.5876 22.6257 75.7897L34.5699 74.633ZM36.5089 58.3713C38.9514 49.4574 43.1179 42.4432 48.8981 37.0855L40.7405 28.2847C33.128 35.3408 27.8965 44.3937 24.9355 55.2002L36.5089 58.3713ZM48.8501 37.1295C55.0383 31.5173 62.0587 27.4313 69.9574 24.84L66.2167 13.4379C56.7111 16.5564 48.2198 21.5011 40.7886 28.2406L48.8501 37.1295ZM70.0179 24.8198C78.1101 22.0694 86.6492 20.6639 95.6669 20.6264L95.6169 8.6265C85.3612 8.66917 75.5304 10.272 66.1563 13.4581L70.0179 24.8198ZM95.6475 20.6265C104.909 20.6179 113.552 21.7341 121.602 23.9398L124.773 12.3664C115.596 9.85186 105.875 8.61697 95.6363 8.62646L95.6475 20.6265ZM121.602 23.9398C134.805 27.5575 146.308 32.5862 156.178 38.9718L162.697 28.8967C151.66 21.7559 138.997 16.2638 124.773 12.3664L121.602 23.9398ZM156.238 39.0099C166.304 45.356 174.276 52.5783 180.278 60.6315L189.9 53.4611C182.894 44.0602 173.766 35.8745 162.637 28.8587L156.238 39.0099ZM180.309 60.6726C186.321 68.5987 190.238 77.18 192.132 86.4599L203.89 84.0611C201.623 72.9496 196.925 62.7215 189.869 53.4201L180.309 60.6726ZM192.144 86.5188C194.124 95.752 193.815 105.216 191.135 114.995L202.709 118.166C205.867 106.639 206.284 95.2225 203.877 84.0022L192.144 86.5188Z" fill="#3B294A"/>
<defs>
<filter id="filter0_d" x="26" y="0" width="260" height="257" filterUnits="userSpaceOnUse" color-interpolation-filters="sRGB">
<feFlood flood-opacity="0" result="BackgroundImageFix"/>
<feColorMatrix in="SourceAlpha" type="matrix" values="0 0 0 0 0 0 0 0 0 0 0 0 0 0 0 0 0 0 127 0" result="hardAlpha"/>
<feOffset dx="3" dy="1"/>
<feGaussianBlur stdDeviation="4"/>
<feComposite in2="hardAlpha" operator="out"/>
<feColorMatrix type="matrix" values="0 0 0 0 0 0 0 0 0 0 0 0 0 0 0 0 0 0 0.32 0"/>
<feBlend mode="normal" in2="BackgroundImageFix" result="effect1_dropShadow"/>
<feBlend mode="normal" in="SourceGraphic" in2="effect1_dropShadow" result="shape"/>
</filter>
<filter id="filter1_d" x="32.8032" y="7.13861" width="207.337" height="297.147" filterUnits="userSpaceOnUse" color-interpolation-filters="sRGB">
<feFlood flood-opacity="0" result="BackgroundImageFix"/>
<feColorMatrix in="SourceAlpha" type="matrix" values="0 0 0 0 0 0 0 0 0 0 0 0 0 0 0 0 0 0 127 0" result="hardAlpha"/>
<feOffset dx="12" dy="7"/>
<feGaussianBlur stdDeviation="2.5"/>
<feComposite in2="hardAlpha" operator="out"/>
<feColorMatrix type="matrix" values="0 0 0 0 0 0 0 0 0 0 0 0 0 0 0 0 0 0 0.29 0"/>
<feBlend mode="normal" in2="BackgroundImageFix" result="effect1_dropShadow"/>
<feBlend mode="normal" in="SourceGraphic" in2="effect1_dropShadow" result="shape"/>
</filter>
</defs>
</svg>
